<?xml version="1.0" encoding="UTF-8"?>
<svg xmlns="http://www.w3.org/2000/svg" xmlns:xlink="http://www.w3.org/1999/xlink"
     width="2578" height="6315" viewBox="0 0 2578 6315">
<defs>
</defs>
<path d="M61.1764705882353,442.05882352941177 L61.1764705882353,166.91176470588235 C61.1764705882353,155.20320251594612,72.72058823529412,143.51202604535789,84.26470588235294,143.52941176470588 L181.91176470588235,143.6764705882353 C184.19117647058823,143.67990343727854,186.47058823529412,146.32696226080793,186.47058823529412,148.97058823529412 L186.32352941176472,158.97058823529412 L202.05882352941177,157.94117647058823 L202.05882352941177,148.97058823529412 C202.05882352941177,146.25,204.41176470588235,143.52941176470588,206.76470588235296,143.52941176470588 L304.11764705882354,143.52941176470588 C308.6764705882353,143.52941176470588,316.0294117647059,146.3235294117647,318.8235294117647,149.11764705882354 L321.0294117647059,151.3235294117647 C324.11764705882354,154.41176470588235,327.20588235294116,161.47058823529412,327.20588235294116,165.44117647058823 L327.20588235294116,442.5 C327.20588235294116,444.4117647058824,325.22058823529414,446.3235294117647,323.2352941176471,446.3235294117647 L65.14705882352942,446.3235294117647 C63.161764705882355,446.3235294117647,61.1764705882353,444.19117647058823,61.1764705882353,442.05882352941177 Z" stroke="red" stroke-width="2" fill="none" />
</svg>