<?xml version="1.0" encoding="UTF-8"?>
<svg xmlns="http://www.w3.org/2000/svg" xmlns:xlink="http://www.w3.org/1999/xlink"
     width="2578" height="6315" viewBox="0 0 2578 6315">
<defs>
</defs>
<path d="M416.0,3006.0 L416.0,1135.0 C416.0,1055.3817771084337,494.5,975.8817771084337,573.0,976.0 L1237.0,977.0 C1252.5,977.023343373494,1268.0,995.023343373494,1268.0,1013.0 L1267,1081 L1374,1074 L1374.0,1013.0 C1374.0,994.5,1390.0,976.0,1406.0,976.0 L2068.0,976.0 C2099.0,976.0,2149.0,995.0,2168.0,1014.0 L2183.0,1029.0 C2204.0,1050.0,2225.0,1098.0,2225.0,1125.0 L2225.0,3009.0 C2225.0,3022.0,2211.5,3035.0,2198.0,3035.0 L443.0,3035.0 C429.5,3035.0,416.0,3020.5,416.0,3006.0 Z" stroke="red" stroke-width="20" fill="none" />
</svg>