<?xml version="1.0" encoding="UTF-8"?>
<svg xmlns="http://www.w3.org/2000/svg" xmlns:xlink="http://www.w3.org/1999/xlink"
     width="4000" height="8000" viewBox="0 0 4000 8000">
<defs>
</defs>
<path d="M444.0,3342.0 L2197.0,3342.0 C2211.0,3342.0,2225.0,3355.0,2225.0,3368.0 L2225.0,5252.0 C2225.0,5326.5,2148.5,5401.0,2072.0,5401.0 L570.0,5401.0 C493.0,5401.0,416.0,5321.5,416.0,5242.0 L416.0,3372.0 C416.0,3357.0,430.0,3342.0,444.0,3342.0 Z" stroke="red" stroke-width="2" fill="none" />
<path d="L2068.0,976.0 C2146.5,976.0,2225.0,1050.5,2225.0,1125.0 L2225.0,3009.0 C2225.0,3022.0,2211.5,3035.0,2198.0,3035.0 L443.0,3035.0 C429.5,3035.0,416.0,3020.5,416.0,3006.0 L416.0,1135.0 C416.0,1055.5,494.5,976.0,573.0,976.0 Z" stroke="red" stroke-width="2" fill="none" />
</svg>