<?xml version="1.0" encoding="UTF-8"?>
<svg xmlns="http://www.w3.org/2000/svg" xmlns:xlink="http://www.w3.org/1999/xlink"
     width="2530" height="6056" viewBox="0 0 2530 6056">
<defs>
</defs>
<path d="M40.89405632955798,505.1618723063045 L40.89405632955798,107.74781998596772 L40.89405632955798,107.74781998596772 C40.89405632955798,100.76517699250991,47.5092713240453,93.79915514225432,54.124486318532625,93.81577628545655 L93.91600681567606,93.81577628545655 C98.75212989876717,93.81577628545655,103.58825298185828,94.71785105743209,103.58825298185828,98.32615014533427 C103.58825298185828,101.93444923323644,105.52270221509471,102.83652400521198,113.2604991480405,102.83652400521198 L146.5370351809161,96.7224616618222 C147.89014733887942,96.7224616618222,149.24325949684274,96.43179312418563,149.24325949684274,95.26911897363937 C149.24325949684274,94.10644482309311,149.78450436002808,93.81577628545655,151.94948381276936,93.81577628545655 L205.67304801042397,93.81577628545655 C212.2882630049113,93.81577628545655,218.9034779993986,100.53122181016337,218.9034779993986,107.2466673348702 L218.9034779993986,505.663024957402 C218.9034779993986,512.3784704821088,212.68918512578932,519.0939160068157,206.47489225218,519.0939160068157 L206.47489225218,519.0939160068157 L178.81126591159668,519.0939160068157 L175.80435000501151,517.4902275233036 L83.99318432394507,517.4902275233036 L175.80435000501151,517.4902275233036 L83.99318432394507,517.4902275233036 L80.98626841735992,519.0939160068157 L53.32264207677658,519.0939160068157 L53.32264207677658,519.0939160068157 C47.108349203167286,519.0939160068157,40.89405632955798,512.12789415656,40.89405632955798,505.1618723063045 Z" stroke="red" stroke-width="1" fill="none" />
</svg>