<?xml version="1.0" encoding="UTF-8"?>
<svg xmlns="http://www.w3.org/2000/svg" xmlns:xlink="http://www.w3.org/1999/xlink"
     width="2740" height="6071" viewBox="0 0 2740 6071">
<defs>
</defs>
<path d="M212.5689084895259,103.41786108048511 L246.52701212789415,103.41786108048511 C254.34950385887538,103.41786108048511,260.7497243660419,110.3638368246968,260.7497243660419,118.85336273428886 L260.7497243660419,557.0011025358324 C260.7497243660419,565.4906284454245,254.20066152149943,572.4366041896361,246.1962513781698,572.4366041896361 L63.39581036383682,572.4366041896361 C55.391400220507165,572.4366041896361,48.84233737596472,565.8875413450937,48.84233737596472,557.8831312017641 L48.84233737596472,117.86108048511576 C48.84233737596472,109.91730981256892,55.2425578831312,103.41786108048511,63.06504961411245,103.41786108048511 L83.6824696802646,103.41786108048511 C84.60859977949283,103.41786108048511,85.22601984564498,104.07938257993385,85.22601984564498,105.07166482910694 L85.22601984564498,112.34840132304299 C85.22601984564498,116.38368246968025,88.57772877618523,119.07386990077177,93.60529217199559,119.07386990077177 C97.30981256890848,119.07386990077177,99.77949283351708,116.47188533627343,99.77949283351708,112.56890848952591 L99.77949283351708,104.85115766262403 L195.70011025358323,103.41786108048511 C196.593164277839,103.41786108048511,197.18853362734288,104.08489525909592,197.18853362734288,105.08544652701212 L197.18853362734288,111.74200661521499 C197.18853362734288,115.74421168687981,199.96692392502757,118.41234840132304,204.13450937155457,118.41234840132304 C207.9713340683572,118.41234840132304,210.52921719955899,115.74421168687981,210.52921719955899,111.74200661521499 L210.52921719955899,105.08544652701212 C210.52921719955899,104.08489525909592,211.34509371554577,103.41786108048511,212.5689084895259,103.41786108048511 Z" stroke="red" stroke-width="1" fill="none" />
<path d="M168.7431091510474,107.00110253583242 L140.95920617420066,107.00110253583242 C138.60253583241456,107.00110253583242,136.24586549062843,109.35777287761852,136.24586549062843,111.71444321940463 C136.24586549062843,114.07111356119073,138.60253583241456,116.42778390297684,140.95920617420066,116.42778390297684 L168.7431091510474,116.42778390297684 C171.0997794928335,116.42778390297684,173.45644983461963,114.07111356119073,173.45644983461963,111.71444321940463 C173.45644983461963,109.35777287761852,171.0997794928335,107.00110253583242,168.7431091510474,107.00110253583242 Z" stroke="red" stroke-width="1" fill="none" />
</svg>