<?xml version="1.0" encoding="UTF-8"?>
<svg xmlns="http://www.w3.org/2000/svg" xmlns:xlink="http://www.w3.org/1999/xlink"
     width="3499" height="6402" viewBox="0 0 3499 6402">
<defs>
</defs>
<path d="M66.48291069459758,109.15104740904079 L328.9966923925027,109.26130099228224 C331.1190738699008,109.26219237467511,332.8555678059537,110.75061574843475,332.8555678059537,112.56890848952591 L332.8555678059537,191.51047409040794 C332.8555678059537,191.5766262403528,332.8114663726571,191.62072767364938,332.74531422271224,191.62072767364938 L324.58654906284454,191.62072767364938 C323.6604189636163,191.62072767364938,323.04299889746414,192.23814773980152,323.04299889746414,193.16427783902975 L323.04299889746414,255.67805953693494 C323.04299889746414,256.67034178610805,323.74862183020946,257.3318632855568,324.80705622932743,257.3318632855568 L332.8555678059537,257.3318632855568 C332.8555678059537,257.3318632855568,332.8555678059537,257.3318632855568,332.8555678059537,257.3318632855568 L332.8555678059537,281.8081587651599 C332.8555678059537,281.8081587651599,332.8555678059537,281.8081587651599,332.8555678059537,281.8081587651599 L324.80705622932743,281.8081587651599 C323.74862183020946,281.8081587651599,323.04299889746414,282.4696802646086,323.04299889746414,283.4619625137817 L323.04299889746414,316.5380374862183 C323.04299889746414,317.46416758544655,323.6163175303197,318.0815876515987,324.4762954796031,318.0815876515987 L332.5248070562293,318.0815876515987 C332.723263506064,318.0815876515987,332.8555678059537,318.12568908489527,332.8555678059537,318.1918412348401 L332.8555678059537,600.2205071664829 C332.8555678059537,602.1003307607497,331.06945975744213,603.638368246968,328.8864388092613,603.638368246968 L66.48291069459758,603.638368246968 C64.23925027563395,603.638368246968,62.40352811466372,601.9514884233737,62.40352811466372,599.8897464167585 L62.40352811466372,113.00992282249173 C62.40352811466372,110.88659902656411,64.23925027563395,109.15010509051119,66.48291069459758,109.15104740904079 Z" stroke="red" stroke-width="1" fill="none" />
<path d="M197.57442116868796,127.23289062624035 C200.1371475325248,127.22678122381478,202.1992178280044,125.16471092833517,202.20532723043,122.60198456449834 C202.1992178280044,120.03925820066152,200.1371475325248,117.9771879051819,197.57442116868796,117.97107850275633 C195.01169480485115,117.9771879051819,192.94962450937155,120.03925820066152,192.94351510694597,122.60198456449834 C192.94962450937155,125.16471092833517,195.01169480485115,127.22678122381478,197.57442116868796,127.23289062624035 Z" stroke="red" stroke-width="1" fill="none" />
</svg>