<?xml version="1.0" encoding="UTF-8"?>
<svg xmlns="http://www.w3.org/2000/svg" xmlns:xlink="http://www.w3.org/1999/xlink"
     width="2640" height="5820" viewBox="0 0 2640 5820">
<defs>
</defs>
<path d="M206.83572216097022,99.22822491730982 L233.62734288864388,99.22822491730982 C243.32965821389195,99.22822491730982,251.26791620727673,108.05953693495039,251.26791620727673,118.85336273428886 L251.26791620727673,529.1069459757442 C251.26791620727673,539.9614112458654,242.58544652701212,548.8423373759647,231.97353914002204,548.8423373759647 L66.26240352811466,548.8423373759647 C55.650496141124584,548.8423373759647,46.968026460859974,540.0110253583241,46.968026460859974,529.2171995589856 L46.968026460859974,118.85336273428886 C46.968026460859974,108.05953693495039,54.90628445424476,99.22822491730982,64.60859977949283,99.22822491730982 L111.90738699007717,99.22822491730982 C117.38699007717751,108.93054024255788,113.28555678059537,109.44321940463064,113.28555678059537,110.2122381477398 L113.28555678059537,105.34729878721058 C113.28555678059537,108.42337375964718,115.33627342888643,110.47409040793825,118.41234840132304,110.47409040793825 C121.48842337375966,110.47409040793825,123.53914002205072,108.42337375964718,123.53914002205072,105.34729878721058 L123.53914002205072,110.2122381477398 C123.53914002205072,109.44321940463064,127.88313120176406,108.93054024255788,134.39911797133405,108.93054024255788 L163.83682469680264,108.93054024255788 C165.49062844542448,108.93054024255788,166.59316427783904,107.82800441014332,166.59316427783904,106.1742006615215 L166.59316427783904,101.10253583241455 C166.59316427783904,99.9779492833517,167.122381477398,99.22822491730982,167.9162072767365,99.22822491730982 L192.6130099228225,99.22822491730982 C193.53914002205073,99.22822491730982,194.15656008820287,99.74090407938257,194.15656008820287,100.50992282249173 L194.15656008820287,105.34729878721058 C194.15656008820287,108.42337375964718,196.38368246968025,110.47409040793825,199.72436604189636,110.47409040793825 C202.53583241455345,110.47409040793825,204.4101433296582,108.42337375964718,204.4101433296582,105.34729878721058 L204.4101433296582,100.50992282249173 C204.4101433296582,99.74090407938257,205.380374862183,99.22822491730982,206.83572216097022,99.22822491730982 Z" stroke="red" stroke-width="1" fill="none" />
</svg>