<?xml version="1.0" encoding="UTF-8"?>
<svg xmlns="http://www.w3.org/2000/svg" xmlns:xlink="http://www.w3.org/1999/xlink"
     width="2888" height="6559" viewBox="0 0 2888 6559">
<defs>
</defs>
<path d="M46.707427082289264,541.3450937155458 L46.707427082289264,122.08078580735692 L0.0,20.44702816477899 L19.44472286258394,0.0 L129.19715345294176,101.63375764257792 C130.14934349002706,101.63375764257792,131.10153352711237,101.83421870301693,131.10153352711237,102.63606294477297 C131.10153352711237,103.43790718652902,131.48240954194648,103.63836824696803,133.00591360128294,103.63836824696803 L163.67645584845144,103.63836824696803 C164.60358825298187,103.63836824696803,165.53072065751226,103.43790718652902,165.53072065751226,102.63606294477297 C165.53072065751226,101.83421870301693,165.90157361932444,101.63375764257792,167.3849854665731,101.63375764257792 L0.0,0.0 L19.34449233236444,19.544953392803446 L20.24656710433998,0.0 L0.0,20.04610604390097 L20.44702816477899,20.948180815876515 L0.0,0.0 Z" stroke="red" stroke-width="1" fill="none" />
<path d="M148.3411847248672,118.9739325518693 C151.28110890848953,118.96692393003907,153.64668738598775,116.60134545254084,153.65369600781798,113.6614212689185 C153.64668738598775,110.72149708529618,151.28110890848953,108.35591860779795,148.3411847248672,108.34890998596772 C145.40126054124485,108.35591860779795,143.03568206374663,110.72149708529618,143.0286734419164,113.6614212689185 C143.03568206374663,116.60134545254084,145.40126054124485,118.96692393003907,148.3411847248672,118.9739325518693 Z" stroke="red" stroke-width="1" fill="none" />
</svg>