<?xml version="1.0" encoding="UTF-8"?>
<svg xmlns="http://www.w3.org/2000/svg" xmlns:xlink="http://www.w3.org/1999/xlink"
     width="2740" height="6071" viewBox="0 0 2740 6071">
<defs>
</defs>
<path d="M48.73208379272326,555.8985667034178 L48.73208379272326,119.84564498346195 L48.73208379272326,119.84564498346195 C48.73208379272326,111.52657246636589,56.89084895259096,103.25755372325676,65.04961411245866,103.30760749724365 L83.02094818081588,103.41786108048511 C85.80635461561592,103.41786108048511,87.00010023053022,104.97243660418964,87.00010023053022,111.19073869900771 C87.00010023053022,115.92061742006616,87.79593064047309,119.07386990077177,90.97925228024457,119.07386990077177 L90.97925228024457,119.07386990077177 C95.75423473990179,119.07386990077177,98.93755637967325,117.49724366041896,98.93755637967325,111.19073869900771 C98.93755637967325,105.74972436604189,99.73338678961613,103.41786108048511,102.91670842938761,103.41786108048511 L106.89586047910196,103.41786108048511 C109.681266913902,103.41786108048511,110.8750125288163,104.97243660418964,110.8750125288163,111.19073869900771 C110.8750125288163,115.92061742006616,111.67084293875917,119.07386990077177,114.85416457853064,119.07386990077177 L114.85416457853064,119.07386990077177 C120.42497744813072,119.07386990077177,122.81246867795933,117.49724366041896,122.81246867795933,111.19073869900771 C122.81246867795933,106.52701212789415,123.60829908790221,103.41786108048511,126.79162072767367,103.41786108048511 L194.92833517089304,103.30760749724365 C196.26791620727673,103.30760749724365,197.16097023153253,104.8180815876516,197.16097023153253,110.85997794928335 C197.16097023153253,116.14663726571114,198.50055126791622,118.41234840132304,203.85887541345093,118.41234840132304 L203.85887541345093,118.41234840132304 C208.54740904079384,118.41234840132304,210.55678059536933,116.90187431091509,210.55678059536933,110.85997794928335 C210.55678059536933,106.32855567805953,211.00330760749722,103.30760749724365,212.78941565600883,103.30760749724365 L244.4321940463065,103.30760749724365 C252.5909592061742,103.30760749724365,260.7497243660419,111.08048511576627,260.7497243660419,118.85336273428886 L260.7497243660419,557.0011025358324 C260.7497243660419,564.7188533627343,253.47298787210585,572.4366041896361,246.1962513781698,572.4366041896361 L63.39581036383682,572.4366041896361 C56.063947078280044,572.4366041896361,48.73208379272326,564.167585446527,48.73208379272326,555.8985667034178 Z" stroke="red" stroke-width="1" fill="none" />
<path d="M141.73098125689086,106.89084895259096 L168.19184123484013,106.89084895259096 C170.5760749724366,106.89084895259096,172.96030871003308,109.27508269018743,172.96030871003308,111.6593164277839 C172.96030871003308,114.04355016538037,170.5760749724366,116.42778390297684,168.19184123484013,116.42778390297684 L168.19184123484013,116.42778390297684 L141.73098125689086,116.42778390297684 C139.34674751929438,116.42778390297684,136.9625137816979,114.04355016538037,136.9625137816979,111.6593164277839 C136.9625137816979,109.27508269018743,139.34674751929438,106.89084895259096,141.73098125689086,106.89084895259096 Z" stroke="red" stroke-width="1" fill="none" />
</svg>