<?xml version="1.0" encoding="UTF-8"?>
<svg xmlns="http://www.w3.org/2000/svg" xmlns:xlink="http://www.w3.org/1999/xlink"
     width="2829" height="6313" viewBox="0 0 2829 6313">
<defs>
</defs>
<path d="M74.75192943770672,107.60749724366042 L98.12568908489526,107.71775082690188 C100.07717750826902,107.71775082690188,102.67916207276735,110.69459757442117,104.63065049614112,110.69459757442117 M104.63065049614112,110.69459757442117 L129.98897464167584,110.69459757442117 C132.2050716648291,110.69459757442117,135.15986769570011,115.10474090407938,137.37596471885337,115.10474090407938 M137.37596471885337,115.10474090407938 L182.24917309812568,115.10474090407938 C184.4321940463065,115.10474090407938,187.3428886438809,110.69459757442117,189.52590959206174,110.69459757442117 M189.52590959206174,110.69459757442117 L214.99448732083792,110.69459757442117 C216.97905181918412,110.69459757442117,219.62513781697905,107.60749724366042,221.60970231532525,107.60749724366042 M221.60970231532525,107.60749724366042 L244.76295479603087,107.60749724366042 M269.23925027563394,126.9018743109151 L269.23925027563394,576.2954796030871 M245.20396912899668,595.2590959206174 L222.27122381477398,595.2590959206174 C220.51819184123482,595.2590959206174,218.180815876516,592.0617420066152,216.42778390297684,592.0617420066152 M216.42778390297684,592.0617420066152 L103.30760749724365,592.0617420066152 C101.52149944873207,592.0617420066152,99.14002205071665,595.2590959206174,97.35391400220507,595.2590959206174 M97.35391400220507,595.2590959206174 L74.42116868798236,595.2590959206174 M50.38588754134509,576.8467475192944 L50.38588754134509,126.35060639470782 Z" stroke="red" stroke-width="1" fill="none" />
<path d="M159.86769570011026,134.8404548037486 C163.10161230209482,134.83274531973538,165.70374862734286,132.2306089944873,165.7114581113561,128.99669239250275 C165.70374862734286,125.76277579051818,163.10161230209482,123.16063946527012,159.86769570011026,123.15292998125689 C156.63377909812567,123.16063946527012,154.03164277287763,125.76277579051818,154.02393328886438,128.99669239250275 C154.03164277287763,132.2306089944873,156.63377909812567,134.83274531973538,159.86769570011026,134.8404548037486 Z" stroke="red" stroke-width="1" fill="none" />
</svg>