<?xml version="1.0" encoding="UTF-8"?>
<svg xmlns="http://www.w3.org/2000/svg" xmlns:xlink="http://www.w3.org/1999/xlink"
     width="2705" height="5926" viewBox="0 0 2705 5926">
<defs>
</defs>
<path d="M67.80595369349504,100.9922822491731 L139.2502756339581,101.10253583241455 C139.64718853362731,101.10314835232145,139.91179713340682,101.27955408550777,139.91179713340682,101.54355016538037 L139.91179713340682,106.94597574421168 C139.91179713340682,109.393605292172,141.45534729878722,111.02535832414553,143.77067254685778,111.02535832414553 L161.742006615215,111.02535832414553 C168.35722160970232,111.02535832414553,177.17750826901874,100.9922822491731,183.79272326350605,100.9922822491731 L237.81697905181917,100.9922822491731 C248.61080485115767,100.9922822491731,257.4421168687982,110.46857772877618,257.4421168687982,122.05071664829107 L257.4421168687982,537.5964718853362 C257.4421168687982,549.2392502756339,248.80926130099226,558.7651598676957,238.257993384785,558.7651598676957 L67.36493936052922,558.7651598676957 C56.81367144432193,558.7651598676957,48.180815876515986,549.7850055126792,48.180815876515986,538.8092613009923 L48.180815876515986,120.83792723263505 C48.180815876515986,109.90616535315175,57.01212789415656,100.97562511059387,67.80595369349504,100.9922822491731 Z" stroke="red" stroke-width="1" fill="none" />
</svg>