<?xml version="1.0" encoding="UTF-8"?>
<svg xmlns="http://www.w3.org/2000/svg" xmlns:xlink="http://www.w3.org/1999/xlink"
     width="2807" height="6135" viewBox="0 0 2807 6135">
<defs>
</defs>
<path d="M79.82359426681367,104.52039691289967 L112.45865490628445,104.74090407938257 C111.79263326058097,104.73640393312782,112.10134329365704,105.48612829916972,113.23042998897463,106.61521499448732 L114.22271223814774,107.60749724366042 C114.75192943770672,108.13671444321939,115.5457552370452,108.48952590959206,116.20727673649394,108.48952590959206 L200.88202866593164,108.48952590959206 C201.54355016538037,108.48952590959206,202.29327453142227,108.180815876516,202.75633958103637,107.71775082690188 L203.85887541345093,106.61521499448732 C205.11576626240353,105.35832414553472,205.55678059536936,104.52039691289967,204.9614112458655,104.52039691289967 L237.2657111356119,104.52039691289967 C253.69900771775085,104.52039691289967,267.1444321940463,117.37045203969129,267.1444321940463,133.0760749724366 L267.1444321940463,550.0551267916208 C267.1444321940463,565.7001102535831,254.44321940463067,578.5005512679162,238.91951488423373,578.5005512679162 L78.05953693495039,578.5005512679162 C62.65711135611907,578.5005512679162,50.05512679162073,565.8489525909592,50.05512679162073,550.385887541345 L50.05512679162073,132.63506063947077 C50.05512679162073,117.06136952829345,63.45093715545755,104.40977085133645,79.82359426681367,104.52039691289967 Z" stroke="red" stroke-width="1" fill="none" />
<path d="M105.5678059536935,108.54465270121278 L94.48732083792723,108.54465270121278 C92.92998897464167,108.54465270121278,91.37265711135612,110.10198456449834,91.37265711135612,111.6593164277839 C91.37265711135612,113.21664829106946,92.92998897464167,114.77398015435502,94.48732083792723,114.77398015435502 L105.5678059536935,114.77398015435502 C107.12513781697905,114.77398015435502,108.6824696802646,113.21664829106946,108.6824696802646,111.6593164277839 C108.6824696802646,110.10198456449834,107.12513781697905,108.54465270121278,105.5678059536935,108.54465270121278 Z" stroke="red" stroke-width="1" fill="none" />
<path d="M158.54465270121278,126.90223331973539 C162.14467306945974,126.89365106394706,165.04139086549063,123.99693326791619,165.04997312127892,120.39691289966923 C165.04139086549063,116.79689253142227,162.14467306945974,113.9001747353914,158.54465270121278,113.89159247960308 C154.94463233296582,113.9001747353914,152.04791453693494,116.79689253142227,152.03933228114664,120.39691289966923 C152.04791453693494,123.99693326791619,154.94463233296582,126.89365106394706,158.54465270121278,126.90223331973539 Z" stroke="red" stroke-width="1" fill="none" />
</svg>