<?xml version="1.0" encoding="UTF-8"?>
<svg xmlns="http://www.w3.org/2000/svg" xmlns:xlink="http://www.w3.org/1999/xlink"
     width="2211" height="4470" viewBox="0 0 2211 4470">
<defs>
</defs>
<path d="M356.0,3634.0 L356.0,880.0 C355.99999999999994,784.9271885521886,442.50000000000006,689.9271885521886,529.0,690.0 L1717.0,691.0 C1754.5315922493683,691.0315922493681,1815.0315922493683,714.0315922493681,1838.0,737.0 L1858.0,757.0 C1883.5,782.5,1909.0,850.5,1909.0,893.0 L1909.0,3621.0 C1909.0,3663.5,1882.4999999999998,3732.4999999999995,1856.0,3759.0 L1841.0,3774.0 C1816.5,3798.5,1763.0,3823.0,1734.0,3823.0 L516.0,3823.0 C490.0,3823.0,443.0,3802.0,422.0,3781.0 L401.0,3760.0 C379.0,3738.0,357.0,3686.0,357.0,3656.0 Z" stroke="red" stroke-width="20" fill="none" />
<path d="M1132.0,3745.00899597 C1222.20857818,3744.79394355,1294.79394355,3672.20857818,1295.0089959700001,3582.0 C1294.79394355,3491.79142182,1222.20857818,3419.20605645,1132.0,3418.99100403 C1041.79142182,3419.20605645,969.20605645,3491.79142182,968.99100403,3582.0 C969.20605645,3672.20857818,1041.79142182,3744.79394355,1132.0,3745.00899597 Z" stroke="blue" stroke-width="5" fill="none" />
<path d="M856.0,986.00264912 C882.56448928,985.9393208,903.9393208,964.56448928,904.00264912,938.0 C903.9393208,911.43551072,882.56448928,890.0606792,856.0,889.99735088 C829.43551072,890.0606792,808.0606792,911.43551072,807.99735088,938.0 C808.0606792,964.56448928,829.43551072,985.9393208,856.0,986.00264912 Z" stroke="blue" stroke-width="5" fill="none" />
</svg>