<?xml version="1.0" encoding="UTF-8"?>
<svg xmlns="http://www.w3.org/2000/svg" xmlns:xlink="http://www.w3.org/1999/xlink"
     width="2152" height="4760" viewBox="0 0 2152 4760">
<defs>
</defs>
<path d="M38.257993384785,426.9018743109151 L38.257993384785,102.97684674751929 C38.257993384785,91.99663279597127,49.33847850055127,81.02640126344647,60.41896361631753,81.03638368246968 L182.80044101433296,81.14663726571114 C193.8257993384785,81.15657002095811,204.85115766262405,92.12680155348292,204.85115766262402,103.08710033076075 L204.85115766262402,426.9018743109151 C204.85115766262402,437.8721058434399,194.70782800441015,448.8423373759647,184.56449834619625,448.8423373759647 L142.77839029768467,448.8423373759647 C141.56560088202866,448.8423373759647,140.35281146637266,447.73980154355013,140.35281146637266,446.6372657111356 L140.35281146637266,426.68136714443216 C140.35281146637266,424.79966351391585,139.46074972436605,408.09828534412526,120.78280044101433,409.0959206174201 C102.30529217199559,410.0828498424715,103.1973539140022,426.784228012262,103.1973539140022,428.6659316427784 L103.1973539140022,447.18853362734285 C103.1973539140022,448.01543550165377,102.31532524807056,448.8423373759647,101.43329658213892,448.8423373759647 L58.54465270121279,448.8423373759647 C48.4013230429989,448.8423373759647,38.257993384785,437.8721058434399,38.257993384785,426.9018743109151 Z" stroke="red" stroke-width="1" fill="none" />
<path d="M107.71775082690188,100.93715545755236 L135.94266813671445,100.93715545755236 C138.6300992282249,100.93715545755236,141.3175303197354,103.62458654906284,141.3175303197354,106.31201764057332 C141.3175303197354,108.99944873208379,138.6300992282249,111.68687982359427,135.94266813671445,111.68687982359427 L107.71775082690188,111.68687982359427 C105.0303197353914,111.68687982359427,102.34288864388093,108.99944873208379,102.34288864388093,106.31201764057332 C102.34288864388093,103.62458654906284,105.0303197353914,100.93715545755236,107.71775082690188,100.93715545755236 Z" stroke="red" stroke-width="1" fill="none" />
<path d="M121.94046306504961,446.9690487232635 C132.1913685203969,446.94461111356117,140.43964970231534,438.69632993164277,140.46408731201763,428.44542447629544 C140.43964970231534,418.1945190209482,132.1913685203969,409.9462378390298,121.94046306504961,409.9218002293274 C111.68955760970232,409.9462378390298,103.4412764277839,418.1945190209482,103.41683881808159,428.44542447629544 C103.4412764277839,438.69632993164277,111.68955760970232,446.94461111356117,121.94046306504961,446.9690487232635 Z" stroke="red" stroke-width="1" fill="none" />
<path d="M121.94046306504961,97.6849789966924 C124.99132778390297,97.6777058985667,127.44617337375963,95.22286030871003,127.45344647188533,92.17199558985666 C127.44617337375963,89.1211308710033,124.99132778390297,86.66628528114663,121.94046306504961,86.65901218302095 C118.88959834619625,86.66628528114663,116.43475275633959,89.1211308710033,116.4274796582139,92.17199558985666 C116.43475275633959,95.22286030871003,118.88959834619625,97.6777058985667,121.94046306504961,97.6849789966924 Z" stroke="red" stroke-width="1" fill="none" />
</svg>