<?xml version="1.0" encoding="UTF-8"?>
<svg xmlns="http://www.w3.org/2000/svg" xmlns:xlink="http://www.w3.org/1999/xlink"
     width="2152" height="4760" viewBox="0 0 2152 4760">
<defs>
</defs>
<path d="M399.0,803.0 L415.0,787.0 C441.03645364536453,760.9635463546355,507.53645364536453,734.9635463546355,548.0,735.0 L1658.0,736.0 C1758.0,736.0900900900901,1858.0000000000002,835.5900900900901,1858.0,935.0 L1858.0,3872.0 C1858.0,3911.5,1834.0,3975.0,1810.0,3999.0 L1785.0,4024.0 C1761.5,4047.5,1706.0,4071.0,1674.0,4071.0 L1289.0,4071.0 C1281.0,4071.0,1273.0,4061.0,1273.0,4051.0 L1273.0,3871.0 C1273.0,3795.0,1198.0,3719.0,1123.0,3719.0 L1088.0,3719.0 C1062.0,3719.0,1015.9999999999999,3739.0,996.0,3759.0 L977.0,3778.0 C956.5,3798.5,936.0,3853.5,936.0,3888.0 L936.0,4055.0 C936.0,4063.0,928.0,4071.0,920.0,4071.0 L530.0,4071.0 C498.5,4071.0,444.0,4048.0,421.0,4025.0 L394.0,3998.0 C370.5,3974.5,347.0,3911.5,347.0,3872.0 L347.0,934.0 C347.0,894.5,373.0,829.0,399.0,803.0 Z" stroke="red" stroke-width="20" fill="none" />
<path d="M1104.0,884.0027595 C1131.671343,883.9367925,1153.9367925,861.671343,1154.0027595,834.0 C1153.9367925,806.328657,1131.671343,784.0632075,1104.0,783.9972405 C1076.328657,784.0632075,1054.0632075,806.328657,1053.9972405,834.0 C1054.0632075,861.671343,1076.328657,883.9367925,1104.0,884.0027595 Z" stroke="blue" stroke-width="5" fill="none" />
</svg>