<?xml version="1.0" encoding="UTF-8"?>
<svg xmlns="http://www.w3.org/2000/svg" xmlns:xlink="http://www.w3.org/1999/xlink"
     width="2724" height="5752" viewBox="0 0 2724 5752">
<defs>
</defs>
<path d="M48.51157662624035,516.6482910694598 L48.51157662624035,123.81477398015436 C48.51157662624035,110.9063725356198,61.19073869900772,98.00670329636951,73.86990077177508,98.0154355016538 L233.95810363836824,98.12568908489526 C246.58213891951488,98.1343833240696,259.2061742006615,110.8686721884577,259.2061742006615,123.59426681367144 L259.2061742006615,516.7585446527012 C259.2061742006615,529.6030871003308,246.0308710033076,542.4476295479603,232.85556780595368,542.4476295479603 L74.86218302094818,542.4476295479603 C61.68687982359427,542.4476295479603,48.51157662624035,529.54796030871,48.51157662624035,516.6482910694598 Z" stroke="red" stroke-width="1" fill="none" />
<path d="M141.89636163175302,103.91400220507167 L165.986769570011,103.91400220507167 C167.24090407938257,103.91400220507167,168.49503858875414,105.16813671444322,168.49503858875414,106.42227122381477 C168.49503858875414,107.67640573318633,167.24090407938257,108.93054024255788,165.986769570011,108.93054024255788 L165.986769570011,108.93054024255788 L141.89636163175302,108.93054024255788 C140.64222712238148,108.93054024255788,139.38809261300992,107.67640573318633,139.38809261300992,106.42227122381477 C139.38809261300992,105.16813671444322,140.64222712238148,103.91400220507167,141.89636163175302,103.91400220507167 Z" stroke="red" stroke-width="1" fill="none" />
</svg>