<?xml version="1.0" encoding="UTF-8"?>
<svg xmlns="http://www.w3.org/2000/svg" xmlns:xlink="http://www.w3.org/1999/xlink"
     width="2882" height="6586" viewBox="0 0 2882 6586">
<defs>
</defs>
<path d="M51.267916207276734,598.8974641675854 L51.267916207276734,134.2888643880926 L51.267916207276734,134.2888643880926 C51.267916207276734,123.22248147483398,61.85226019845645,112.19712315068845,72.43660418963616,112.23814773980153 L100.77177508269018,112.23814773980153 C102.12238147739801,112.23814773980153,103.47298787210585,112.57993384785006,103.47298787210585,113.9470782800441 C103.47298787210585,115.31422271223815,104.01323042998897,115.65600882028666,106.1742006615215,115.65600882028666 L219.51488423373758,115.65600882028666 C227.08889639719743,115.65600882028666,248.74617313369134,122.64382579933847,232.41455347298788,125.13781697905182 C251.00670235089092,122.29862183020947,259.58040687128783,112.23814773980153,241.89636163175302,112.23814773980153 L253.14222712238146,112.23814773980153 C263.67144432194044,112.23814773980153,274.20066152149946,122.1058434399118,274.20066152149946,131.97353914002204 L274.20066152149946,601.433296582139 C274.20066152149946,611.2458654906284,263.45093715545755,621.0584343991179,252.70121278941565,621.0584343991179 L225.13781697905182,621.0584343991179 C223.67695700110252,621.0584343991179,222.21609702315325,620.6504961411246,222.21609702315325,619.018743109151 C222.21609702315325,617.3869900771774,221.63175303197355,616.9790518191841,219.2943770672547,616.9790518191841 L106.28445424476295,616.9790518191841 C104.71334068357221,616.9790518191841,103.14222712238147,617.3869900771774,103.14222712238147,619.018743109151 C103.14222712238147,620.6504961411246,102.51378169790517,621.0584343991179,100.0,621.0584343991179 L72.87761852260198,621.0584343991179 C62.07276736493936,621.0584343991179,51.267916207276734,609.9779492833517,51.267916207276734,598.8974641675854 Z" stroke="red" stroke-width="1" fill="none" />
</svg>