<?xml version="1.0" encoding="UTF-8"?>
<svg xmlns="http://www.w3.org/2000/svg" xmlns:xlink="http://www.w3.org/1999/xlink"
     width="2705" height="5926" viewBox="0 0 2705 5926">
<defs>
</defs>
<path d="M48.180815876515986,538.8092613009923 L48.180815876515986,120.83792723263505 C48.18081587651598,110.89993848293115,57.99338478500551,100.97711599120015,67.80595369349504,100.9922822491731 L139.02976846747518,100.9922822491731 C140.45203969128997,100.9922822491731,141.40022050716647,101.49393605292171,141.40022050716647,106.00882028665932 C141.40022050716647,110.52370452039692,142.348401323043,111.02535832414553,143.77067254685778,111.02535832414553 L161.742006615215,112.78941565600881 C163.46563763322305,112.78941565600881,164.69680264608598,111.60970231532524,166.66666666666666,106.89084895259096 C166.66666666666666,103.35170893054024,167.15913267181182,100.9922822491731,169.12899669239246,100.9922822491731 L169.12899669239246,100.9922822491731 C170.60639470782795,100.9922822491731,171.5913267181183,102.17199558985668,171.5913267181183,106.89084895259096 C171.5913267181183,111.01984564498346,172.08379272326346,112.78941565600881,174.05365674384413,112.78941565600881 L174.05365674384413,112.78941565600881 C177.50091877986029,112.78941565600881,178.9783167952958,111.60970231532524,178.9783167952958,106.89084895259096 C178.9783167952958,103.35170893054024,179.96324880558615,100.9922822491731,183.9029768467475,100.9922822491731 L237.81697905181917,100.9922822491731 C247.6295479603087,100.9922822491731,257.4421168687982,111.52149944873209,257.4421168687982,122.05071664829107 L257.4421168687982,537.7067254685777 C257.4421168687982,548.2359426681367,247.8500551267916,558.7651598676957,238.257993384785,558.7651598676957 L67.36493936052922,558.7651598676957 C57.7728776185226,558.7651598676957,48.180815876515986,548.7872105843439,48.180815876515986,538.8092613009923 Z" stroke="red" stroke-width="1" fill="none" />
</svg>