<?xml version="1.0" encoding="UTF-8"?>
<svg xmlns="http://www.w3.org/2000/svg" xmlns:xlink="http://www.w3.org/1999/xlink"
     width="2740" height="6000" viewBox="0 0 2740 6000">
<defs>
</defs>
<path d="M48.73208379272326,542.3373759647188 L48.73208379272326,125.68908489525909 L48.73208379272326,125.68908489525909 C48.73208379272326,113.92064762652731,60.308710033076075,102.17864101131232,71.88533627342889,102.2050716648291 L120.06615214994487,102.2050716648291 C122.9768467475193,102.2050716648291,122.9768467475193,102.2050716648291,127.34288864388093,109.64718853362734 C131.70893054024253,117.08930540242558,131.70893054024253,117.08930540242558,134.61962513781697,117.08930540242558 L175.19294377067254,117.08930540242558 C178.77618522601983,117.08930540242558,182.35942668136713,115.60088202866592,182.35942668136713,109.64718853362734 C182.35942668136713,103.69349503858875,183.79272326350605,102.2050716648291,189.52590959206174,102.2050716648291 L237.59647188533626,102.2050716648291 C249.17309812568908,102.2050716648291,260.7497243660419,113.56119073869901,260.7497243660419,124.9173098125689 L260.7497243660419,543.109151047409 C260.7497243660419,554.4652701212789,249.17309812568908,565.8213891951489,237.59647188533626,565.8213891951489 L71.88533627342889,565.8213891951489 C60.308710033076075,565.8213891951489,48.73208379272326,554.0793825799338,48.73208379272326,542.3373759647188 Z" stroke="red" stroke-width="1" fill="none" />
</svg>