<?xml version="1.0" encoding="UTF-8"?>
<svg xmlns="http://www.w3.org/2000/svg" xmlns:xlink="http://www.w3.org/1999/xlink"
     width="2832" height="6351" viewBox="0 0 2832 6351">
<defs>
</defs>
<path d="M50.38588754134509,574.5314222712238 L50.38588754134509,132.52480705622932 C50.38588754134509,120.3337579345115,62.78941565600882,108.1507369863307,75.19294377067254,108.1587651598677 L245.53472987872104,108.26901874310914 C257.497243660419,108.27676147047595,269.4597574421169,119.74313412758731,269.4597574421169,131.20176405733187 L269.4597574421169,575.9647188533627 C269.4597574421169,587.4310915104741,257.6626240352811,598.8974641675854,245.86549062844543,598.8974641675854 L73.98015435501654,598.8974641675854 C62.18302094818081,598.8974641675854,50.38588754134509,586.7144432194046,50.38588754134509,574.5314222712238 Z" stroke="red" stroke-width="1" fill="none" />
<path d="M73.20837927232635,134.84055216207275 C77.41857258434399,134.8305152866593,80.8062594983462,131.44282837265712,80.81629637375964,127.23263506063947 C80.8062594983462,123.02244174862182,77.41857258434399,119.63475483461963,73.20837927232635,119.62471795920618 C68.99818596030872,119.63475483461963,65.6104990463065,123.02244174862182,65.60046217089305,127.23263506063947 C65.6104990463065,131.44282837265712,68.99818596030872,134.8305152866593,73.20837927232635,134.84055216207275 Z" stroke="red" stroke-width="1" fill="none" />
</svg>