<?xml version="1.0" encoding="UTF-8"?>
<svg xmlns="http://www.w3.org/2000/svg" xmlns:xlink="http://www.w3.org/1999/xlink"
     width="2724" height="5750" viewBox="0 0 2724 5750">
<defs>
</defs>
<path d="M48.51157662624035,517.42006615215 L48.51157662624035,123.81477398015436 L48.51157662624035,123.81477398015436 C48.51157662624035,110.8404619765093,62.348401323043,97.88566594563831,76.18522601984564,97.90518191841234 L154.24476295479602,97.90518191841234 L155.5678059536935,97.90518191841234 L232.52480705622932,97.90518191841234 C245.86549062844543,97.90518191841234,259.2061742006615,110.69459757442117,259.2061742006615,123.48401323042998 L259.2061742006615,516.4277839029768 C259.2061742006615,529.3274531422271,246.2513781697905,542.2271223814773,233.29658213891952,542.2271223814773 L73.53914002205072,542.2271223814773 C61.025358324145536,542.2271223814773,48.51157662624035,529.8235942668136,48.51157662624035,517.42006615215 Z" stroke="red" stroke-width="1" fill="none" />
<path d="M194.0463065049614,115.21539000551269 C198.01243063947078,115.20593497794927,201.20372990628445,112.0146357111356,201.21318493384786,108.04851157662624 C201.20372990628445,104.08238744211687,198.01243063947078,100.8910881753032,194.0463065049614,100.8816331477398 C190.08018237045204,100.8910881753032,186.88888310363836,104.08238744211687,186.87942807607496,108.04851157662624 C186.88888310363836,112.0146357111356,190.08018237045204,115.20593497794927,194.0463065049614,115.21539000551269 Z" stroke="red" stroke-width="1" fill="none" />
<path d="M176.62624035281146,112.89993697464168 C179.31100130540244,112.89353664829106,181.4712654244763,110.73327252921719,181.4776657508269,108.04851157662624 C181.4712654244763,105.36375062403528,179.31100130540244,103.2034865049614,176.62624035281146,103.1970861786108 C173.9414794002205,103.2034865049614,171.78121528114664,105.36375062403528,171.77481495479603,108.04851157662624 C171.78121528114664,110.73327252921719,173.9414794002205,112.89353664829106,176.62624035281146,112.89993697464168 Z" stroke="red" stroke-width="1" fill="none" />
<path d="M109.81256890848952,114.2230286527012 C112.98546821609703,114.21546463065049,115.53850762954795,111.66242521719956,115.54607165159867,108.48952590959206 C115.53850762954795,105.31662660198457,112.98546821609703,102.76358718853362,109.81256890848952,102.7560231664829 C106.63966960088203,102.76358718853362,104.08663018743108,105.31662660198457,104.07906616538037,108.48952590959206 C104.08663018743108,111.66242521719956,106.63966960088203,114.21546463065049,109.81256890848952,114.2230286527012 Z" stroke="red" stroke-width="1" fill="none" />
<path d="M129.21719955898567,114.2230286527012 C132.39009886659318,114.21546463065049,134.94313828004408,111.66242521719956,134.9507023020948,108.48952590959206 C134.94313828004408,105.31662660198457,132.39009886659318,102.76358718853362,129.21719955898567,102.7560231664829 C126.04430025137816,102.76358718853362,123.49126083792724,105.31662660198457,123.48369681587651,108.48952590959206 C123.49126083792724,111.66242521719956,126.04430025137816,114.21546463065049,129.21719955898567,114.2230286527012 Z" stroke="red" stroke-width="1" fill="none" />
</svg>