<?xml version="1.0" encoding="UTF-8"?>
<svg xmlns="http://www.w3.org/2000/svg" xmlns:xlink="http://www.w3.org/1999/xlink"
     width="2640" height="5820" viewBox="0 0 2640 5820">
<defs>
</defs>
<path d="M206.83572216097022,99.22822491730982 L233.62734288864388,99.22822491730982 C243.32965821389195,99.22822491730982,251.26791620727673,108.05953693495039,251.26791620727673,118.85336273428886 L251.26791620727673,529.1069459757442 C251.26791620727673,539.9614112458654,242.58544652701212,548.8423373759647,231.97353914002204,548.8423373759647 L66.26240352811466,548.8423373759647 C55.650496141124584,548.8423373759647,46.968026460859974,540.0110253583241,46.968026460859974,529.2171995589856 L46.968026460859974,118.85336273428886 C46.968026460859974,108.05953693495039,54.90628445424476,99.22822491730982,64.60859977949283,99.22822491730982 L111.90738699007717,99.22822491730982 C122.02866593164276,99.22822491730982,113.03197353914003,110.3638368246968,123.15325248070562,110.3638368246968 C133.27453142227122,110.3638368246968,124.27783902976847,108.93054024255788,134.39911797133405,108.93054024255788 L163.83682469680264,108.93054024255788 C165.37486218302095,108.93054024255788,166.43329658213892,108.00441014332965,166.48291069459756,106.61521499448732 L166.70341786108048,100.44101433296582 C166.72940620570168,99.71334068357221,167.2145219719641,99.22822491730982,167.9162072767365,99.22822491730982 L192.6130099228225,99.22822491730982 C199.01323042998897,99.22822491730982,193.32414553472987,110.47409040793825,199.72436604189636,110.47409040793825 C206.12458654906283,110.47409040793825,200.43550165380375,99.22822491730982,206.83572216097022,99.22822491730982 Z" stroke="red" stroke-width="1" fill="none" />
</svg>