<?xml version="1.0" encoding="UTF-8"?>
<svg xmlns="http://www.w3.org/2000/svg" xmlns:xlink="http://www.w3.org/1999/xlink"
     width="2740" height="6087" viewBox="0 0 2740 6087">
<defs>
</defs>
<path d="M48.73208379272326,558.2138919514884 L48.73208379272326,119.18412348401323 C48.73208379272326,115.38037486218302,78.61080485115767,111.57662624035281,108.48952590959206,111.57662624035281 L127.23263506063947,111.57662624035281 C129.24476295479602,111.57662624035281,131.2568908489526,112.19404630650496,131.2568908489526,114.66372657111356 C131.2568908489526,117.13340683572217,132.06174200661522,117.7508269018743,135.28114663726572,117.7508269018743 L174.09040793825798,117.7508269018743 C176.1300992282249,117.7508269018743,178.16979051819183,117.13340683572217,178.16979051819183,114.66372657111356 C178.16979051819183,112.19404630650496,178.98566703417862,111.57662624035281,182.24917309812568,111.57662624035281 L201.54355016538037,111.57662624035281 C231.14663726571112,111.57662624035281,260.7497243660419,115.04961411245866,260.7497243660419,118.52260198456449 L260.7497243660419,558.8754134509371 C260.7497243660419,562.3484013230429,231.42227122381476,565.8213891951489,202.09481808158765,565.8213891951489 L108.82028665931642,565.8213891951489 C78.77618522601985,565.8213891951489,48.73208379272326,562.0176405733187,48.73208379272326,558.2138919514884 Z" stroke="red" stroke-width="1" fill="none" />
<path d="M95.47960308710033,129.32787299999998 C99.68979639911797,129.31783612458653,103.07748331312017,125.93014921058435,103.08752018853363,121.7199558985667 C103.07748331312017,117.50976258654904,99.68979639911797,114.12207567254686,95.47960308710033,114.11203879713341 C91.26940977508269,114.12207567254686,87.88172286108049,117.50976258654904,87.87168598566703,121.7199558985667 C87.88172286108049,125.93014921058435,91.26940977508269,129.31783612458653,95.47960308710033,129.32787299999998 Z" stroke="red" stroke-width="1" fill="none" />
</svg>