<?xml version="1.0" encoding="UTF-8"?>
<svg xmlns="http://www.w3.org/2000/svg" xmlns:xlink="http://www.w3.org/1999/xlink"
     width="2578" height="6315" viewBox="0 0 2578 6315">
<defs>
</defs>
<path d="M45.86549062844542,331.4222712238148 L45.86549062844542,125.13781697905182 C45.86549062844542,116.35962261393976,54.52039691289967,107.59446274624406,63.17530319735391,107.60749724366042 L136.38368246968025,107.71775082690188 C138.09261300992281,107.72032451747452,139.80154355016538,109.70488901582073,139.80154355016538,111.68687982359427 L139.69128996692393,119.18412348401323 L139.69128996692393,119.18412348401323 L151.48842337375964,118.41234840132304 M140.07717750826902,125.08269018743108 L151.10253583241456,112.51378169790517 L151.48842337375964,111.68687982359427 C151.48842337375964,109.64718853362734,153.25248070562293,107.60749724366042,155.0165380374862,107.60749724366042 L228.00441014332966,107.60749724366042 C231.42227122381476,107.60749724366042,236.93495038588753,109.70231532524807,239.02976846747518,111.79713340683571 L240.68357221609702,113.45093715545755 C242.99889746416758,115.76626240352812,245.31422271223815,121.05843439911797,245.31422271223815,124.03528114663726 L245.31422271223815,331.7530319735391 C245.31422271223815,333.1863285556781,243.8257993384785,334.61962513781697,242.33737596471886,334.61962513781697 L48.84233737596472,334.61962513781697 C47.35391400220507,334.61962513781697,45.86549062844542,333.0209481808159,45.86549062844542,331.4222712238148 Z" stroke="red" stroke-width="1" fill="none" />
</svg>