<?xml version="1.0" encoding="UTF-8"?>
<svg xmlns="http://www.w3.org/2000/svg" xmlns:xlink="http://www.w3.org/1999/xlink"
     width="2904" height="6124" viewBox="0 0 2904 6124">
<defs>
</defs>
<path d="M51.708930540242555,551.5986769570011 L51.708930540242555,130.20948180815876 C51.708930540242555,117.21124148455354,64.82910694597574,104.25644545368255,77.94928335170893,104.29988974641675 L111.13561190738699,104.29988974641675 C114.08489525909592,104.29988974641675,117.03417861080484,106.06394707828004,117.03417861080484,113.12017640573318 C117.03417861080484,120.17640573318633,118.21389195148842,121.94046306504961,122.93274531422271,121.94046306504961 L204.29988974641674,121.94046306504961 C207.13891951488424,121.94046306504961,209.9779492833517,120.17640573318633,209.9779492833517,113.12017640573318 C209.9779492833517,106.06394707828004,211.1135611907387,104.29988974641675,215.65600882028664,104.29988974641675 L250.16538037486217,104.29988974641675 C263.2304299889746,104.29988974641675,276.2954796030871,116.70341786108048,276.2954796030871,129.1069459757442 L276.2954796030871,552.7012127894156 C276.2954796030871,565.1047409040793,263.3958103638368,577.5082690187431,250.49614112458653,577.5082690187431 L77.5082690187431,577.5082690187431 C64.60859977949283,577.5082690187431,51.708930540242555,564.553472987872,51.708930540242555,551.5986769570011 Z" stroke="red" stroke-width="1" fill="none" />
</svg>