<?xml version="1.0" encoding="UTF-8"?>
<svg xmlns="http://www.w3.org/2000/svg" xmlns:xlink="http://www.w3.org/1999/xlink"
     width="2152" height="4760" viewBox="0 0 2152 4760">
<defs>
</defs>
<path d="M60.41896361631753,81.03638368246968 L182.80044101433296,81.14663726571114 C194.92833517089304,81.1575632964828,204.85115766262402,91.03077167575513,204.85115766262402,103.08710033076075 L204.85115766262402,426.9018743109151 C204.85115766262402,438.96912899669235,195.72216097023153,448.8423373759647,184.56449834619625,448.8423373759647 L142.77839029768467,448.8423373759647 C141.44432194046308,448.8423373759647,140.35281146637266,447.85005512679163,140.35281146637266,446.6372657111356 L140.35281146637266,426.68136714443216 C140.35281146637266,417.3660026369255,130.5678059536935,408.57327937341944,120.78280044101433,409.0959206174201 C111.99007717750827,409.56556162259255,103.1973539140022,419.35056713527166,103.1973539140022,428.6659316427784 L103.1973539140022,447.18853362734285 C103.1973539140022,448.0981256890849,102.40352811466371,448.8423373759647,101.43329658213892,448.8423373759647 L58.54465270121279,448.8423373759647 C47.38699007717751,448.8423373759647,38.257993384785,438.96912899669235,38.257993384785,426.9018743109151 L38.257993384785,102.97684674751929 C38.257993384785,90.89861140081646,48.23042998897464,81.02540302154415,60.41896361631753,81.03638368246968 Z" stroke="red" stroke-width="1" fill="none" />
<path d="M135.94266813671445,100.93715545755236 L107.71775082690188,100.93715545755236 C105.0303197353914,100.93715545755236,102.34288864388093,103.62458654906284,102.34288864388093,106.31201764057332 C102.34288864388093,108.99944873208379,105.0303197353914,111.68687982359427,107.71775082690188,111.68687982359427 L135.94266813671445,111.68687982359427 C138.6300992282249,111.68687982359427,141.3175303197354,108.99944873208379,141.3175303197354,106.31201764057332 C141.3175303197354,103.62458654906284,138.6300992282249,100.93715545755236,135.94266813671445,100.93715545755236 Z" stroke="red" stroke-width="1" fill="none" />
<path d="M121.94046306504961,97.6849789966924 C124.99132778390297,97.6777058985667,127.44617337375963,95.22286030871003,127.45344647188533,92.17199558985666 C127.44617337375963,89.1211308710033,124.99132778390297,86.66628528114663,121.94046306504961,86.65901218302095 C118.88959834619625,86.66628528114663,116.43475275633959,89.1211308710033,116.4274796582139,92.17199558985666 C116.43475275633959,95.22286030871003,118.88959834619625,97.6777058985667,121.94046306504961,97.6849789966924 Z" stroke="red" stroke-width="1" fill="none" />
</svg>