<?xml version="1.0" encoding="UTF-8"?>
<svg xmlns="http://www.w3.org/2000/svg" xmlns:xlink="http://www.w3.org/1999/xlink"
     width="2152" height="4760" viewBox="0 0 2152 4760">
<defs>
</defs>
<path d="M548.0,735.0 L1657.0,735.0 C1757.5,735.0,1858.0,835.0,1858.0,935.0 L1858.0,3872.0 C1858.0,3971.5,1766.0,4071.0,1674.0,4071.0 L1289.0,4071.0 C1281.0,4071.0,1273.0,4061.0,1273.0,4051.0 L936.0,4055.0 C936.0,4063.0,928.0,4071.0,920.0,4071.0 L530.0,4071.0 C438.5,4071.0,347.0,3971.5,347.0,3872.0 L347.0,934.0 C347.0,834.5,447.5,735.0,548.0,735.0 Z" stroke="red" stroke-width="2" fill="none" />
<path d="M1104.0,884.0027595 C1131.671343,883.9367925,1153.9367925,861.671343,1154.0027595,834.0 C1153.9367925,806.328657,1131.671343,784.0632075,1104.0,783.9972405 C1076.328657,784.0632075,1054.0632075,806.328657,1053.9972405,834.0 C1054.0632075,861.671343,1076.328657,883.9367925,1104.0,884.0027595 Z" stroke="blue" stroke-width="5" fill="none" />
</svg>