<?xml version="1.0" encoding="UTF-8"?>
<svg xmlns="http://www.w3.org/2000/svg" xmlns:xlink="http://www.w3.org/1999/xlink"
     width="2882" height="6586" viewBox="0 0 2882 6586">
<defs>
</defs>
<path d="M46.60719655206976,544.4522401523504 L46.60719655206976,122.08078580735692 L46.60719655206976,122.08078580735692 C46.60719655206976,112.02043770439452,56.229327453142226,101.99738468244405,65.85145835421469,102.03467976345594 L91.61070462062744,102.03467976345594 C92.83852861581637,102.03467976345594,94.06635261100531,102.34539440713641,94.06635261100531,103.58825298185828 C94.06635261100531,104.83111155658014,94.55748220908087,105.1418262002606,96.52200060138318,105.1418262002606 L199.55898566703416,115.06464869199158 C204.64568507567404,115.06464869199158,209.7323844843139,113.76165179913801,209.7323844843139,108.54966422772377 C209.7323844843139,103.33767665630951,211.7670642477699,102.03467976345594,219.90578330159366,102.03467976345594 L230.12929738398316,102.03467976345594 C239.70131301994587,102.03467976345594,249.27332865590859,111.00531221810164,249.27332865590859,119.97594467274732 L249.27332865590859,546.757542347399 C249.27332865590859,555.6780595369349,239.50085195950686,564.5985767264708,229.72837526310514,564.5985767264708 L229.72837526310514,564.5985767264708 L204.67074270822891,564.5985767264708 L199.35852460659515,560.8900471083492 L96.62223113160269,560.8900471083492 L199.35852460659515,560.8900471083492 L96.62223113160269,560.8900471083492 L90.9090909090909,564.5985767264708 L66.2523804750927,564.5985767264708 L66.2523804750927,564.5985767264708 C56.42978851358124,564.5985767264708,46.60719655206976,554.5254084394106,46.60719655206976,544.4522401523504 Z" stroke="red" stroke-width="1" fill="none" />
</svg>