<?xml version="1.0" encoding="UTF-8"?>
<svg xmlns="http://www.w3.org/2000/svg" xmlns:xlink="http://www.w3.org/1999/xlink"
     width="2896" height="6641" viewBox="0 0 2896 6641">
<defs>
</defs>
<path d="M134.72987872105844,133.62734288864388 L192.50275633958103,133.62734288864388 C198.180815876516,133.62734288864388,198.180815876516,133.638368246968,198.180815876516,133.73759647188533 C198.180815876516,133.8478500551268,200.45203969128994,133.8478500551268,203.85887541345093,133.8478500551268 C207.26571113561192,133.8478500551268,209.53693495038587,133.8478500551268,209.53693495038587,133.73759647188533 C209.53693495038587,133.83682469680267,209.53693495038587,133.8478500551268,215.21499448732084,133.8478500551268 L229.54796030871003,133.8478500551268 C252.48070562293273,133.8478500551268,275.41345093715546,159.3715545755237,275.41345093715546,184.8952590959206 L275.41345093715546,200.66152149944872 C275.41345093715546,200.66262403528114,275.35887541345096,200.71719955898567,275.41345093715546,200.77177508269017 C275.4691289966924,200.82745314222714,275.5237045203969,200.77287761852259,275.5237045203969,200.77177508269017 L275.5237045203969,223.48401323042998 L275.5237045203969,608.0485115766262 C275.5237045203969,617.1444321940463,265.54575523704517,626.2403528114663,255.5678059536935,626.2403528114663 L71.55457552370451,626.2403528114663 C61.57662624035281,626.2403528114663,51.5986769570011,616.7034178610804,51.5986769570011,607.1664829106945 L51.5986769570011,210.25358324145535 L51.708930540242555,191.0694597574421 C51.708930540242555,191.07056229327452,51.76350606394708,191.12513781697905,51.819184123484014,191.0694597574421 C51.76460859977949,191.12403528114663,51.819184123484014,190.96030871003308,51.819184123484014,190.95920617420066 L51.819184123484014,178.94156560088203 C51.819184123484014,156.3947078280044,74.75192943770672,133.8478500551268,97.68467475192944,133.8478500551268 Z" stroke="red" stroke-width="1" fill="none" />
<path d="M145.86549062844543,117.36493936052922 L154.13450937155457,117.36493936052922 L154.13450937155457,117.36493936052922 L145.86549062844543,117.36493936052922 C146.08820286659315,113.34288864388093,146.08820286659315,113.56119073869901,145.86549062844543,113.56119073869901 C146.08391354910813,113.56119073869901,145.647309359472,113.34288864388093,145.6449834619625,113.3406835722161 Z" stroke="yellow" stroke-width="1" fill="none" />
<path d="M172.21609702315325,130.43026279492835 C174.96187527012128,130.4237170066152,177.17123630099226,128.2143559757442,177.1777820893054,125.46857772877618 C177.17123630099226,122.72279948180815,174.96187527012128,120.51343845093716,172.21609702315325,120.50689266262403 C169.47031877618522,120.51343845093716,167.26095774531422,122.72279948180815,167.25441195700108,125.46857772877618 C167.26095774531422,128.2143559757442,169.47031877618522,130.4237170066152,172.21609702315325,130.43026279492835 Z" stroke="blue" stroke-width="5" fill="none" />
</svg>