<?xml version="1.0" encoding="UTF-8"?>
<svg xmlns="http://www.w3.org/2000/svg" xmlns:xlink="http://www.w3.org/1999/xlink"
     width="2152" height="4760" viewBox="0 0 2152 4760">
<defs>
</defs>
<path d="M1858.0,935.0 L1858.0,3872.0 C1858.0,3971.5,1766.0,4071.0,1674.0,4071.0 M1674.0,4071.0 L1289.0,4071.0 C1281.0,4071.0,1273.0,4061.0,1273.0,4051.0 M936.0,3888.0 L936.0,4055.0 C936.0,4063.0,928.0,4071.0,920.0,4071.0 M920.0,4071.0 L530.0,4071.0 C438.5,4071.0,347.0,3971.5,347.0,3872.0 M347.0,3872.0 L347.0,934.0 C347.0,834.5,447.5,735.0,548.0,735.0 M548.0,735.0 L1657.0,735.0 C1757.5,735.0,1858.0,835.0,1858.0,935.0" stroke="red" stroke-width="2" fill="none" id="d0" />
<use xlink:href="#d0" />
<use xlink:href="#d0" />
<use xlink:href="#d0" />
<use xlink:href="#d0" />
<use xlink:href="#d0" />
<path d="M1154.0,834.0 C1154.0,766.0,1054.0,766.0,1054.0,834.0 C1054.0,902.0,1154.0,902.0,1154.0,834.0" stroke="blue" stroke-width="2" fill="none" />
</svg>