<?xml version="1.0" encoding="UTF-8"?>
<svg xmlns="http://www.w3.org/2000/svg" xmlns:xlink="http://www.w3.org/1999/xlink"
     width="4000" height="8000" viewBox="0 0 4000 8000">
<defs>
</defs>
<path d="M573.0,976.0 L1236.0,976.0 C1252.0,976.0,1268.0,994.5,1268.0,1013.0 L1374.0,1013.0 C1374.0,994.5,1390.0,976.0,1406.0,976.0 L2068.0,976.0 C2099.0,976.0,2149.0,995.0,2168.0,1014.0 L2183.0,1029.0 C2204.0,1050.0,2225.0,1098.0,2225.0,1125.0 L2225.0,3009.0 C2225.0,3022.0,2211.5,3035.0,2198.0,3035.0 L443.0,3035.0 C429.5,3035.0,416.0,3020.5,416.0,3006.0 L416.0,1135.0 C416.0,1055.5,494.5,976.0,573.0,976.0 Z" stroke="red" stroke-width="2" fill="none" />
</svg>