<?xml version="1.0" encoding="UTF-8"?>
<svg xmlns="http://www.w3.org/2000/svg" xmlns:xlink="http://www.w3.org/1999/xlink"
     width="2640" height="5820" viewBox="0 0 2640 5820">
<defs>
</defs>
<path d="M42.69820587350907,481.00631452340383 L42.69820587350907,108.04851157662624 L42.69820587350907,108.04851157662624 C42.69820587350907,99.05531478619731,51.76906885837426,90.08468233155162,60.83993184323945,90.10724666733486 L101.0323744612609,90.10724666733486 C106.34459256289466,90.10724666733486,111.65681066452841,91.13962112859576,111.65681066452841,95.26911897363937 C111.65681066452841,99.39861681868297,113.78169790518191,100.43099127994387,122.28124686779593,100.43099127994387 L148.94256790618422,99.0277638568708 C150.04510373859878,99.0277638568708,151.14763957101331,98.13571213791721,151.14763957101331,94.56750526210283 C151.14763957101331,90.99929838628846,151.58865390397915,90.10724666733486,153.35271123584243,90.10724666733486 L176.50596371654805,90.10724666733486 L176.50596371654805,93.66543049012729 C176.50596371654805,98.4013230429989,177.90417961311016,100.43099127994387,181.16668337175503,100.43099127994387 C184.4291871303999,100.43099127994387,185.827403026962,98.4013230429989,185.827403026962,93.66543049012729 L185.827403026962,90.10724666733486 L210.2836524005212,90.10724666733486 C219.35451538538638,90.10724666733486,228.42537837025156,99.07787912198056,228.42537837025156,108.04851157662624 L228.42537837025156,481.00631452340383 C228.42537837025156,489.9769469780495,219.6552069760449,498.9475794326952,210.88503558183822,498.9475794326952 L60.23854866192242,498.9475794326952 C51.468377267715745,498.9475794326952,42.69820587350907,489.9769469780495,42.69820587350907,481.00631452340383 Z" stroke="red" stroke-width="1" fill="none" />
</svg>