<?xml version="1.0" encoding="UTF-8"?>
<svg xmlns="http://www.w3.org/2000/svg" xmlns:xlink="http://www.w3.org/1999/xlink"
     width="2211" height="4470" viewBox="0 0 2211 4470">
<defs>
</defs>
<path d="M39.250275633958104,400.6615214994487 L39.250275633958104,97.0231532524807 C39.2502756339581,86.54103512152024,48.787210584343995,76.06694471358198,58.32414553472988,76.07497243660418 L189.30540242557882,76.18522601984564 C199.88974641675853,76.1941354003096,210.47409040793823,87.32974730769659,210.47409040793826,98.45644983461962 L210.47409040793826,399.2282249173098 C210.47409040793826,410.36383682469676,200.82690187431092,421.4994487320838,191.17971334068358,421.4994487320838 L56.89084895259096,421.4994487320838 C48.07056229327453,421.4994487320838,39.250275633958104,411.08048511576624,39.250275633958104,400.6615214994487 Z" stroke="red" stroke-width="1" fill="none" />
<path d="M111.79713340683571,99.06284454244762 L138.09261300992281,99.06284454244762 C140.25633958103637,99.06284454244762,142.42006615214993,101.22657111356119,142.42006615214993,103.39029768467475 C142.42006615214993,105.5540242557883,140.25633958103637,107.71775082690188,138.09261300992281,107.71775082690188 L138.09261300992281,107.71775082690188 L111.79713340683571,107.71775082690188 Z" stroke="red" stroke-width="1" fill="none" />
<path d="M117.97133406835722,84.95038588754134 L131.75303197353912,84.95038588754134 C133.11742006615214,84.95038588754134,134.48180815876515,86.31477398015436,134.48180815876515,87.67916207276737 C134.48180815876515,89.04355016538037,133.11742006615214,90.40793825799338,131.75303197353912,90.40793825799338 L131.75303197353912,90.40793825799338 L117.97133406835722,90.40793825799338 Z" stroke="red" stroke-width="1" fill="none" />
<path d="M124.80705622932744,412.90066107717746 C134.7528752127894,412.8769507772878,142.75567183572215,404.87415415435504,142.7793821356119,394.92833517089304 C142.75567183572215,384.9825161874311,134.7528752127894,376.9797195644983,124.80705622932744,376.9560092646086 C114.8612372458655,376.9797195644983,106.85844062293275,384.9825161874311,106.83473032304299,394.92833517089304 C106.85844062293275,404.87415415435504,114.8612372458655,412.8769507772878,124.80705622932744,412.90066107717746 Z" stroke="red" stroke-width="1" fill="none" />
<path d="M94.37706725468577,108.7103251510474 C97.305897384785,108.70334297684674,99.66254915104741,106.34669121058434,99.66953132524807,103.41786108048511 C99.66254915104741,100.48903095038588,97.305897384785,98.13237918412348,94.37706725468577,98.12539700992282 C91.44823712458656,98.13237918412348,89.09158535832414,100.48903095038588,89.08460318412348,103.41786108048511 C89.09158535832414,106.34669121058434,91.44823712458656,108.70334297684674,94.37706725468577,108.7103251510474 Z" stroke="red" stroke-width="1" fill="none" />
</svg>