<?xml version="1.0" encoding="UTF-8"?>
<svg xmlns="http://www.w3.org/2000/svg" xmlns:xlink="http://www.w3.org/1999/xlink"
     width="2853" height="6484" viewBox="0 0 2853 6484">
<defs>
</defs>
<path d="M71.99558985667034,110.47409040793825 L140.35281146637266,110.58434399117971 C141.21417871767423,110.58573329319795,142.00800451701272,110.80624045968085,142.33737596471886,111.13561190738699 L143.4399117971334,112.23814773980153 C143.77067254685778,112.56890848952591,144.2116868798236,112.78941565600881,144.54244762954795,112.78941565600881 L177.72877618522602,112.78941565600881 C178.0595369349504,112.78941565600881,178.4564498346196,112.61300992282249,178.7210584343991,112.34840132304299 L179.93384785005512,111.13561190738699 C180.33076074972436,110.73869900771774,181.16868798235942,110.47409040793825,182.02866593164276,110.47409040793825 L250.16538037486217,110.47409040793825 L270.01102535832416,127.67364939360529 L271.44432194046306,591.4002205071664 L258.9856670341786,605.2921719955898 L70.78280044101433,611.3561190738699 L52.149944873208376,594.1565600882028 L50.82690187431091,131.42227122381476 L67.69570011025358,112.23814773980153 Z" stroke="red" stroke-width="1" fill="none" />
<path d="M160.9702315325248,127.67391712899669 C163.65499248511577,127.66751680264608,165.8152566041896,125.50725268357222,165.82165693054026,122.82249173098126 C165.8152566041896,120.13773077839028,163.65499248511577,117.97746665931643,160.9702315325248,117.9710663329658 C158.28547057993384,117.97746665931643,156.12520646085997,120.13773077839028,156.11880613450936,122.82249173098126 C156.12520646085997,125.50725268357222,158.28547057993384,127.66751680264608,160.9702315325248,127.67391712899669 Z" stroke="red" stroke-width="1" fill="none" />
</svg>