<?xml version="1.0" encoding="UTF-8"?>
<svg xmlns="http://www.w3.org/2000/svg" xmlns:xlink="http://www.w3.org/1999/xlink"
     width="3499" height="6402" viewBox="0 0 3499 6402">
<defs>
</defs>
<path d="M60.439009722361426,99.22822491730982 L233.2364438207878,99.22822491730982 C267.9162072767365,99.22822491730982,302.59597073268515,100.78179813571214,302.59597073268515,102.33537135411446 L302.59597073268515,173.89996993084094 L293.6754535431492,173.89996993084094 L293.6754535431492,234.13851859276335 L302.59597073268515,234.13851859276335 L302.59597073268515,255.9887741806154 L293.6754535431492,255.9887741806154 L293.6754535431492,289.46577127393005 L302.59597073268515,289.46577127393005 L302.59597073268515,545.6550065149844 C302.59597073268515,547.2085797333867,300.7918211887341,548.7621529517891,298.987671644783,548.7621529517891 L60.439009722361426,548.7621529517891 C58.58474491330059,548.7621529517891,56.73048010423975,547.0582339380575,56.73048010423975,545.3543149243259 L56.73048010423975,102.63606294477297 C56.73048010423975,100.9321439310414,58.58474491330059,99.22822491730982,60.439009722361426,99.22822491730982 Z" stroke="red" stroke-width="1" fill="none" />
<path d="M179.6131101533527,116.06720845344293 C182.1647424636664,116.06112549864687,184.21788604791018,114.00798191440312,184.22396900270624,111.4563496040894 C184.21788604791018,108.90471729377569,182.1647424636664,106.85157370953193,179.6131101533527,106.84549075473588 C177.061477843039,106.85157370953193,175.00833425879523,108.90471729377569,175.00225130399917,111.4563496040894 C175.00833425879523,114.00798191440312,177.061477843039,116.06112549864687,179.6131101533527,116.06720845344293 Z" stroke="red" stroke-width="1" fill="none" />
</svg>