<?xml version="1.0" encoding="UTF-8"?>
<svg xmlns="http://www.w3.org/2000/svg" xmlns:xlink="http://www.w3.org/1999/xlink"
     width="2211" height="4470" viewBox="0 0 2211 4470">
<defs>
</defs>
<path d="M1909.0,893.0 L1909.0,3621.0 C1909.0,3722.0,1821.5,3823.0,1734.0,3823.0 M1734.0,3823.0 L516.0,3823.0 C436.0,3823.0,356.0,3728.5,356.0,3634.0 M356.0,3634.0 L356.0,880.0 C356.0,785.0,442.5,690.0,529.0,690.0 M529.0,690.0 L1716.0,690.0 C1812.5,690.0,1909.0,791.5,1909.0,893.0" stroke="red" stroke-width="2" fill="none" id="d0" />
<use xlink:href="#d0" />
<use xlink:href="#d0" />
<use xlink:href="#d0" />
<path d="M1132,3745.00899597 C1222.20857818,3744.79394355,1294.79394355,3672.20857818,1295.0089959700001,3582 C1294.79394355,3491.79142182,1222.20857818,3419.20605645,1132,3418.99100403 C1041.79142182,3419.20605645,969.20605645,3491.79142182,968.99100403,3582 C969.20605645,3672.20857818,1041.79142182,3744.79394355,1132,3745.00899597 Z" stroke="blue" stroke-width="5" fill="none" />
<path d="M856,986.00264912 C882.56448928,985.9393208,903.9393208,964.56448928,904.00264912,938 C903.9393208,911.43551072,882.56448928,890.0606792,856,889.99735088 C829.43551072,890.0606792,808.0606792,911.43551072,807.99735088,938 C808.0606792,964.56448928,829.43551072,985.9393208,856,986.00264912 Z" stroke="blue" stroke-width="5" fill="none" />
</svg>