<?xml version="1.0" encoding="UTF-8"?>
<svg xmlns="http://www.w3.org/2000/svg" xmlns:xlink="http://www.w3.org/1999/xlink"
     width="2904" height="6124" viewBox="0 0 2904 6124">
<defs>
</defs>
<path d="M707.0,946.0 L2269.0,946.0 C2387.5,946.0,2506.0,1058.5,2506.0,1171.0 L2506.0,5013.0 C2506.0,5125.5,2389.0,5238.0,2272.0,5238.0 L703.0,5238.0 C586.0,5238.0,469.0,5120.5,469.0,5003.0 L469.0,1181.0 C469.0,1063.5,588.0,946.0,707.0,946.0 Z" stroke="red" stroke-width="2" fill="none" />
<path d="M1272,1100.0026491200001 C1298.56448928,1099.9393208,1319.9393208,1078.56448928,1320.0026491200001,1052 C1319.9393208,1025.43551072,1298.56448928,1004.0606792,1272,1003.99735088 C1245.43551072,1004.0606792,1224.0606792,1025.43551072,1223.9973508799999,1052 C1224.0606792,1078.56448928,1245.43551072,1099.9393208,1272,1100.0026491200001 Z" stroke="blue" stroke-width="5" fill="none" />
<path d="M1106,1100.0026491200001 C1132.56448928,1099.9393208,1153.9393208,1078.56448928,1154.0026491200001,1052 C1153.9393208,1025.43551072,1132.56448928,1004.0606792,1106,1003.99735088 C1079.43551072,1004.0606792,1058.0606792,1025.43551072,1057.9973508799999,1052 C1058.0606792,1078.56448928,1079.43551072,1099.9393208,1106,1100.0026491200001 Z" stroke="blue" stroke-width="5" fill="none" />
<path d="M1858,1108.00309064 C1888.99190416,1107.9292076,1913.9292076,1082.99190416,1914.00309064,1052 C1913.9292076,1021.00809584,1888.99190416,996.0707924,1858,995.99690936 C1827.00809584,996.0707924,1802.0707924,1021.00809584,1801.99690936,1052 C1802.0707924,1082.99190416,1827.00809584,1107.9292076,1858,1108.00309064 Z" stroke="blue" stroke-width="5" fill="none" />
<path d="M1700,1102.0026491200001 C1726.56448928,1101.9393208,1747.9393208,1080.56448928,1748.0026491200001,1054 C1747.9393208,1027.43551072,1726.56448928,1006.0606792,1700,1005.99735088 C1673.43551072,1006.0606792,1652.0606792,1027.43551072,1651.9973508799999,1054 C1652.0606792,1080.56448928,1673.43551072,1101.9393208,1700,1102.0026491200001 Z" stroke="blue" stroke-width="5" fill="none" />
</svg>