<?xml version="1.0" encoding="UTF-8"?>
<svg xmlns="http://www.w3.org/2000/svg" xmlns:xlink="http://www.w3.org/1999/xlink"
     width="2969" height="6306" viewBox="0 0 2969 6306">
<defs>
</defs>
<path d="M86.6593164277839,107.49724366041896 L142.66813671444322,107.60749724366042 C143.36273428886437,107.60749724366042,144.2888643880926,108.71003307607496,144.9834619625138,108.71003307607496 L190.40793825799338,108.71003307607496 C191.135611907387,108.71003307607496,192.1058434399118,107.49724366041896,192.8335170893054,107.49724366041896 L248.84233737596472,107.49724366041896 C267.33737596471883,107.49724366041896,282.4696802646086,122.53031973539139,282.4696802646086,140.90407938257994 L282.4696802646086,561.3009922822491 C282.4696802646086,579.614112458655,267.43660418963617,594.5975744211687,249.06284454244764,594.5975744211687 L86.54906284454245,594.5975744211687 C68.0540242557883,594.5975744211687,52.92171995589857,579.3660418963617,52.92171995589857,560.7497243660418 L52.92171995589857,141.45534729878722 C52.92171995589857,122.74186337237062,68.10363836824698,107.46071673510491,86.6593164277839,107.49724366041896 Z" stroke="red" stroke-width="1" fill="none" />
<path d="M190.79382579933846,118.57772877618523 L145.09371554575523,118.57772877618523 C140.3114663726571,118.57772877618523,135.52921719955899,123.35997794928335,135.52921719955899,128.14222712238148 C135.52921719955899,132.9244762954796,140.3114663726571,137.70672546857773,145.09371554575523,137.70672546857773 L190.79382579933846,137.70672546857773 C195.5760749724366,137.70672546857773,200.35832414553474,132.9244762954796,200.35832414553474,128.14222712238148 C200.35832414553474,123.35997794928335,195.5760749724366,118.57772877618523,190.79382579933846,118.57772877618523 Z" stroke="red" stroke-width="1" fill="none" />
</svg>