<?xml version="1.0" encoding="UTF-8"?>
<svg xmlns="http://www.w3.org/2000/svg" xmlns:xlink="http://www.w3.org/1999/xlink"
     width="2786" height="6373" viewBox="0 0 2786 6373">
<defs>
</defs>
<path d="M49.61411245865491,578.941565600882 L49.61411245865491,130.54024255788312 L49.61411245865491,130.54024255788312 C49.61411245865491,119.55083229890286,60.584343991179715,108.58060076637807,71.55457552370451,108.59977949283352 L134.61962513781697,108.71003307607496 C139.40463065049616,108.71003307607496,139.40463065049616,108.71003307607496,146.58213891951488,116.42778390297684 C153.75964718853362,124.25578831312018,157.348401323043,124.25578831312018,158.54465270121278,124.25578831312018 L158.54465270121278,124.25578831312018 C159.74090407938257,124.25578831312018,163.32965821389195,124.25578831312018,170.5071664829107,116.42778390297684 C177.68467475192944,108.71003307607496,177.68467475192944,108.71003307607496,182.4696802646086,108.71003307607496 L243.32965821389195,108.59977949283352 C254.24476295479602,108.59977949283352,265.1598676957001,118.57772877618523,265.1598676957001,128.55567805953694 L265.1598676957001,580.9261300992282 C265.1598676957001,590.9040793825799,255.23704520396913,600.8820286659317,245.31422271223815,600.8820286659317 L69.57001102535833,600.8820286659317 C59.592061742006614,600.8820286659317,49.61411245865491,589.9117971334068,49.61411245865491,578.941565600882 Z" stroke="red" stroke-width="1" fill="none" />
</svg>