<?xml version="1.0" encoding="UTF-8"?>
<svg xmlns="http://www.w3.org/2000/svg" xmlns:xlink="http://www.w3.org/1999/xlink"
     width="2904" height="6124" viewBox="0 0 2904 6124">
<defs>
</defs>
<path d="M76.07497243660418,104.41014332965821 L112.01764057331863,104.52039691289967 C114.79603087100331,104.52891958252447,116.64829106945976,106.46938264757408,116.64829106945976,109.3715545755237 L116.64829106945976,116.42778390297684 C116.64829106945976,119.73539140022051,119.07386990077177,121.94046306504961,122.7122381477398,121.94046306504961 L204.52039691289966,121.94046306504961 C208.1587651598677,121.94046306504961,210.5843439911797,119.69128996692392,210.5843439911797,116.31753031973538 L210.5843439911797,109.15104740904079 C210.5843439911797,106.30650496141125,212.26019845644984,104.41014332965821,214.773980154355,104.41014332965821 L252.03969128996692,104.41014332965821 C265.38037486218303,104.41014332965821,276.2954796030871,115.5237045203969,276.2954796030871,129.1069459757442 L276.2954796030871,552.7012127894156 C276.2954796030871,566.3450937155458,264.6857772877618,577.5082690187431,250.49614112458653,577.5082690187431 L77.5082690187431,577.5082690187431 C63.3186328555678,577.5082690187431,51.708930540242555,565.8489525909592,51.708930540242555,551.5986769570011 L51.708930540242555,130.20948180815876 C51.708930540242555,115.97873729209083,62.673649393605295,104.36903497676558,76.07497243660418,104.41014332965821" stroke="red" stroke-width="1" fill="none" />
</svg>