<?xml version="1.0" encoding="UTF-8"?>
<svg xmlns="http://www.w3.org/2000/svg" xmlns:xlink="http://www.w3.org/1999/xlink"
     width="2152" height="4760" viewBox="0 0 2152 4760">
<defs>
</defs>
<path d="M38.257993384785,426.9018743109151 L38.257993384785,102.97684674751929 L38.257993384785,102.97684674751929 C38.257993384785,91.99663279597127,49.33847850055127,81.02640126344647,60.41896361631753,81.03638368246968 L182.80044101433296,81.14663726571114 C193.8257993384785,81.15657002095811,204.85115766262405,92.12680155348292,204.85115766262402,103.08710033076075 L204.85115766262402,426.9018743109151 C204.85115766262402,437.8721058434399,194.70782800441015,448.8423373759647,184.56449834619625,448.8423373759647 L142.11686879823594,448.8423373759647 C141.2348401323043,448.8423373759647,140.35281146637266,447.73980154355013,140.35281146637266,446.6372657111356 L140.35281146637266,426.79162072767366 C140.35281146637266,424.91049535593584,139.5103087100331,408.20911718614536,120.83792723263505,409.15104740904076 C102.35485115766262,410.0834281012501,103.1973539140022,426.78480627104057,103.1973539140022,428.6659316427784 L103.1973539140022,447.0782800441014 C103.1973539140022,447.9603087100331,102.31532524807056,448.8423373759647,101.43329658213892,448.8423373759647 L58.43439911797133,448.8423373759647 C48.34619625137817,448.8423373759647,38.257993384785,437.8721058434399,38.257993384785,426.9018743109151 Z" stroke="red" stroke-width="1" fill="none" />
<path d="M107.66262403528114,100.93715545755236 L135.94266813671445,100.93715545755236 C138.6300992282249,100.93715545755236,141.3175303197354,103.62458654906284,141.3175303197354,106.31201764057332 C141.3175303197354,108.99944873208379,138.6300992282249,111.68687982359427,135.94266813671445,111.68687982359427 L107.66262403528114,111.68687982359427 C104.97519294377067,111.68687982359427,102.28776185226019,108.99944873208379,102.28776185226019,106.31201764057332 C102.28776185226019,103.62458654906284,104.97519294377067,100.93715545755236,107.66262403528114,100.93715545755236 Z" stroke="red" stroke-width="1" fill="none" />
<path d="M121.7199558985667,97.46447183020948 C124.77082061742006,97.4571987320838,127.22566620727672,95.00235314222712,127.23293930540241,91.95148842337376 C127.22566620727672,88.9006237045204,124.77082061742006,86.44577811466372,121.7199558985667,86.43850501653803 C118.66909117971333,86.44577811466372,116.21424558985667,88.9006237045204,116.206972491731,91.95148842337376 C116.21424558985667,95.00235314222712,118.66909117971333,97.4571987320838,121.7199558985667,97.46447183020948 Z" stroke="red" stroke-width="1" fill="none" />
</svg>