<?xml version="1.0" encoding="UTF-8"?>
<svg xmlns="http://www.w3.org/2000/svg" xmlns:xlink="http://www.w3.org/1999/xlink"
     width="3499" height="6402" viewBox="0 0 3499 6402">
<defs>
</defs>
<path d="M66.48291069459758,109.15104740904079 L256.5600882028666,109.15104740904079 C294.70782800441015,109.15104740904079,332.8555678059537,110.85997794928335,332.8555678059537,112.56890848952591 L332.8555678059537,191.28996692392502 C332.8555678059537,190.77416287799016,331.9635060639471,186.36341315362412,326.9570011025358,187.37596471885337 C322.15093715545754,188.34797765197033,323.04299889746414,192.75872737633637,323.04299889746414,193.27453142227122 L323.04299889746414,255.67805953693494 C323.04299889746414,256.19167399625877,322.2004961411246,260.60242372062487,327.01212789415655,261.5214994487321 C332.01306504961406,262.4767346357296,332.8555678059537,258.06598491136356,332.8555678059537,257.55237045203967 L332.8555678059537,281.5876515986769 C332.8555678059537,281.0740371393531,332.01306504961406,276.66328741498705,327.01212789415655,277.6185226019846 C322.2004961411246,278.5375983300918,323.04299889746414,282.9483480544578,323.04299889746414,283.4619625137817 L323.04299889746414,316.5380374862183 C323.04299889746414,317.0516519455421,322.2004961411246,321.4624016699082,327.01212789415655,322.3814773980154 C332.01306504961406,323.33671258501295,332.8555678059537,318.9259628606469,332.8555678059537,318.412348401323 L332.8555678059537,600.2205071664829 C332.8555678059537,601.9294377067255,330.8710033076075,603.638368246968,328.8864388092613,603.638368246968 L66.48291069459758,603.638368246968 C64.44321940463065,603.638368246968,62.40352811466372,601.7640573318632,62.40352811466372,599.8897464167585 L62.40352811466372,112.89966923925027 C62.40352811466372,111.02535832414553,64.44321940463065,109.15104740904079,66.48291069459758,109.15104740904079 Z" stroke="red" stroke-width="1" fill="none" />
<path d="M197.57442116868796,127.67392929878721 C200.38121671003307,127.66723804851156,202.6396746527012,125.40878010584343,202.64636590297684,122.60198456449834 C202.6396746527012,119.79518902315326,200.38121671003307,117.53673108048513,197.57442116868796,117.53003983020947 C194.76762562734288,117.53673108048513,192.50916768467476,119.79518902315326,192.5024764343991,122.60198456449834 C192.50916768467476,125.40878010584343,194.76762562734288,127.66723804851156,197.57442116868796,127.67392929878721 Z" stroke="red" stroke-width="1" fill="none" />
</svg>