<?xml version="1.0" encoding="UTF-8"?>
<svg xmlns="http://www.w3.org/2000/svg" xmlns:xlink="http://www.w3.org/1999/xlink"
     width="2705" height="5926" viewBox="0 0 2705 5926">
<defs>
</defs>
<path d="M48.180815876515986,538.8092613009923 L48.180815876515986,120.83792723263505 C48.180815876515986,110.89996188765024,57.99338478500551,100.97713939591925,67.80595369349504,100.9922822491731 L139.14002205071665,100.9922822491731 C140.52921719955899,100.9922822491731,141.45534729878722,101.49393605292171,141.45534729878722,106.00882028665932 C141.45534729878722,110.52370452039692,142.38147739801545,111.02535832414553,143.77067254685778,111.02535832414553 L161.742006615215,112.89966923925027 C163.4570623545265,112.89966923925027,164.68210216832045,111.70893054024256,166.64216587039078,106.94597574421168 C166.64216587039078,103.37375964718854,167.13218179590834,100.9922822491731,169.09224549797867,100.9922822491731 L169.09224549797867,100.9922822491731 C170.56229327453138,100.9922822491731,171.54232512556655,102.18302094818081,171.54232512556655,106.94597574421168 C171.54232512556655,111.1135611907387,172.03234105108413,112.89966923925027,173.99240475315443,112.89966923925027 L173.99240475315443,112.89966923925027 C177.4225162317775,112.89966923925027,178.89256400833023,111.70893054024256,178.89256400833023,106.94597574421168 C178.89256400833023,103.37375964718854,179.8725958593654,100.9922822491731,183.79272326350602,100.9922822491731 L237.81697905181917,100.9922822491731 C247.6295479603087,100.9922822491731,257.4421168687982,111.52149944873209,257.4421168687982,122.05071664829107 L257.4421168687982,537.5964718853362 C257.4421168687982,548.180815876516,247.8500551267916,558.7651598676957,238.257993384785,558.7651598676957 L67.36493936052922,558.7651598676957 C57.7728776185226,558.7651598676957,48.180815876515986,548.7872105843439,48.180815876515986,538.8092613009923 Z" stroke="red" stroke-width="1" fill="none" />
</svg>