<?xml version="1.0" encoding="UTF-8"?>
<svg xmlns="http://www.w3.org/2000/svg" xmlns:xlink="http://www.w3.org/1999/xlink"
     width="2152" height="4760" viewBox="0 0 2152 4760">
<defs>
</defs>
<path d="M0.0,0.0 L2151.0,0.0 C2151.0,0.0,2151.0,0.0,2151.0,0.0 L2151.0,4759.0 C2151.0,4759.0,2151.0,4759.0,2151.0,4759.0 L0.0,4759.0 C0.0,4759.0,0.0,4759.0,0.0,4759.0 L0.0,0.0 C0.0,0.0,0.0,0.0,0.0,0.0 Z" stroke="red" stroke-width="2" fill="none" />
<path d="M1104,884.0027595 C1131.671343,883.9367925,1153.9367925,861.671343,1154.0027595,834 C1153.9367925,806.328657,1131.671343,784.0632075,1104,783.9972405 C1076.328657,784.0632075,1054.0632075,806.328657,1053.9972405,834 C1054.0632075,861.671343,1076.328657,883.9367925,1104,884.0027595 Z" stroke="blue" stroke-width="5" fill="none" />
</svg>