<?xml version="1.0" encoding="UTF-8"?>
<svg xmlns="http://www.w3.org/2000/svg" xmlns:xlink="http://www.w3.org/1999/xlink"
     width="2904" height="6124" viewBox="0 0 2904 6124">
<defs>
</defs>
<path d="M2506.0,1171.0 L2506.0,5013.0 C2506.0,5125.5,2389.0,5238.0,2272.0,5238.0 M2272.0,5238.0 L703.0,5238.0 C586.0,5238.0,469.0,5120.5,469.0,5003.0 M469.0,5003.0 L469.0,1181.0 C469.0,1063.5,588.0,946.0,707.0,946.0 M707.0,946.0 L2269.0,946.0 C2387.5,946.0,2506.0,1058.5,2506.0,1171.0" stroke="red" stroke-width="2" fill="none" id="d0" />
<use xlink:href="#d0" />
<use xlink:href="#d0" />
<use xlink:href="#d0" />
<path d="M1320.0,1052.0 C1320.0,986.72,1224.0,986.72,1224.0,1052.0 C1224.0,1117.28,1320.0,1117.28,1320.0,1052.0" stroke="blue" stroke-width="2" fill="none" />
<path d="M1154.0,1052.0 C1154.0,986.72,1058.0,986.72,1058.0,1052.0 C1058.0,1117.28,1154.0,1117.28,1154.0,1052.0" stroke="blue" stroke-width="2" fill="none" />
<path d="M1914.0,1052.0 C1914.0,975.84,1802.0,975.84,1802.0,1052.0 C1802.0,1128.16,1914.0,1128.16,1914.0,1052.0" stroke="blue" stroke-width="2" fill="none" />
<path d="M1748.0,1054.0 C1748.0,988.72,1652.0,988.72,1652.0,1054.0 C1652.0,1119.28,1748.0,1119.28,1748.0,1054.0" stroke="blue" stroke-width="2" fill="none" />
</svg>