<?xml version="1.0" encoding="UTF-8"?>
<svg xmlns="http://www.w3.org/2000/svg" xmlns:xlink="http://www.w3.org/1999/xlink"
     width="2640" height="5820" viewBox="0 0 2640 5820">
<defs>
</defs>
<path d="M46.968026460859974,529.1069459757442 L46.968026460859974,118.85336273428886 L46.968026460859974,118.85336273428886 C46.968026460859974,108.96084626481704,56.94597574421169,99.09315056470678,66.9239250275634,99.11797133406836 L111.24586549062845,99.22822491730982 C113.0552492956021,99.22822491730982,113.83069949773366,100.34178610804851,113.83069949773366,104.79603087100331 C113.83069949773366,107.27673649393606,114.86463310057574,108.93054024255788,119.00036751194412,108.93054024255788 L119.00036751194412,108.93054024255788 C122.10216832047041,108.93054024255788,124.17003552615459,108.10363836824696,124.17003552615459,104.79603087100331 C124.17003552615459,100.89856670341786,124.68700232757564,99.22822491730982,126.75486953325981,99.22822491730982 L129.33970354036504,99.22822491730982 C131.14908734533867,99.22822491730982,131.92453754747024,100.34178610804851,131.92453754747024,104.79603087100331 C131.92453754747024,107.27673649393606,132.4415043488913,108.93054024255788,134.50937155457547,108.93054024255788 L163.83682469680264,108.93054024255788 C165.29217199558985,108.93054024255788,166.26240352811465,108.4399117971334,166.26240352811465,104.02425578831311 C166.26240352811465,99.60859977949283,167.23263506063947,99.11797133406836,168.68798235942668,99.11797133406836 L191.95148842337375,99.11797133406836 C193.0678059536935,99.11797133406836,193.81201764057332,100.25358324145535,193.81201764057332,104.79603087100331 C193.81201764057332,108.77067254685777,194.92833517089304,110.47409040793825,199.393605292172,110.47409040793825 L199.393605292172,110.47409040793825 C203.30071664829106,110.47409040793825,204.97519294377068,109.33847850055128,204.97519294377068,104.79603087100331 C204.97519294377068,101.38919514884233,205.34729878721058,99.11797133406836,206.83572216097022,99.11797133406836 L231.31201764057332,99.11797133406836 C241.28996692392502,99.11797133406836,251.26791620727673,108.9856670341786,251.26791620727673,118.85336273428886 L251.26791620727673,529.1069459757442 C251.26791620727673,538.9746416758544,241.62072767364938,548.8423373759647,231.97353914002204,548.8423373759647 L66.26240352811466,548.8423373759647 C56.61521499448732,548.8423373759647,46.968026460859974,538.9746416758544,46.968026460859974,529.1069459757442 Z" stroke="red" stroke-width="1" fill="none" />
</svg>