<?xml version="1.0" encoding="UTF-8"?>
<svg xmlns="http://www.w3.org/2000/svg" xmlns:xlink="http://www.w3.org/1999/xlink"
width="8.2677in" height="11.6929in" viewBox="0 0 595.2756 841.8898">
<defs>
</defs>
<path d="M311.86745633105926,2253.5422445460676 L311.86745633105926,850.8883724417122 C311.86745633105926,791.200072800385,370.7174450858385,731.6004026601946,429.5674338406177,731.6890321613314 L927.3558737536547,732.4387135467426 C938.9759352275282,732.4562136393237,950.5959967014019,745.9504785767253,950.5959967014019,759.4272434215458 L949.8463153159906,810.4055776295074 L1030.062223554989,805.157807931629 L1030.062223554989,759.4272434215458 C1030.062223554989,745.5581377914386,1042.0571257215684,731.6890321613314,1054.0520278881474,731.6890321613314 L1550.341105030362,731.6890321613314 C1573.5812279781092,731.6890321613314,1611.0652972486691,745.9329784841442,1625.309243571482,760.176924806957 L1636.55446435265,771.422145588125 C1652.2977734462852,787.1654546817603,1668.0410825399204,823.1501611814978,1668.0410825399204,843.3915585876002 L1668.0410825399204,2255.7912887023012 C1668.0410825399204,2265.537146712647,1657.9203838368692,2275.2830047229927,1647.799685133818,2275.2830047229927 L332.10885373716167,2275.2830047229927 C321.9881550341105,2275.2830047229927,311.86745633105926,2264.4126246345304,311.86745633105926,2253.5422445460676 Z" stroke="red" stroke-width="2" fill="none" />
</svg>
