<?xml version="1.0" encoding="UTF-8"?>
<svg xmlns="http://www.w3.org/2000/svg" xmlns:xlink="http://www.w3.org/1999/xlink"
width="8.2677in" height="11.6929in" viewBox="0 0 595.2756 841.8898">
<defs>
</defs>
<path d="M45.997346306943825,332.37505528527197 L45.997346306943825,125.49756744803184 C45.997346306943825,116.69413723003467,54.677134011499334,107.90377898147209,63.35692171605484,107.91685095090668 L136.77576293675364,108.02742149491375 C138.48960636886332,108.03000258441993,140.203449800973,110.02027237654731,140.203449800973,112.00796107916851 L140.09287925696594,119.52675807164971 L151.92392746572312,118.75276426360017 L151.92392746572312,112.00796107916851 C151.92392746572312,109.96240601503759,153.69305616983635,107.91685095090668,155.46218487394958,107.91685095090668 L228.65988500663423,107.91685095090668 C232.0875718708536,107.91685095090668,237.61609907120743,110.01769128704113,239.71693940734187,112.11853162317558 L241.375497567448,113.77708978328172 C243.69747899159663,116.09907120743033,246.01946041574524,121.40645731977001,246.01946041574524,124.39186200796107 L246.01946041574524,332.70676691729324 C246.01946041574524,334.1441839893852,244.5267580716497,335.5816010614772,243.03405572755418,335.5816010614772 L48.98275099513489,335.5816010614772 C47.49004865103936,335.5816010614772,45.997346306943825,333.9783281733746,45.997346306943825,332.37505528527197 Z" stroke="red" stroke-width="1" fill="none" />
</svg>
