<?xml version="1.0" encoding="UTF-8"?>
<svg xmlns="http://www.w3.org/2000/svg" xmlns:xlink="http://www.w3.org/1999/xlink"
width="8.2677in" height="11.6929in" viewBox="0 0 595.2756 841.8898">
<defs>
</defs>
<path d="L107.49724366041896,111.13561190738699 C107.71775082690188,111.35611907386989,108.21389195148842,111.57662624035281,108.48952590959206,111.57662624035281 C123.04600581337074,111.57662624035281,118.85937656610203,111.57662624035281,128.22491730981255,118.63285556780595 C126.90788814272827,117.64057331863285,131.09451738999698,117.64057331863285,135.28114663726572,117.64057331863285 C178.35070662523805,117.64057331863285,182.61100531221808,117.64057331863285,181.20176405733184,118.68798235942668 C190.76977047208578,111.57662624035281,186.50947178510575,111.57662624035281,182.24917309812568,111.57662624035281 L201.54355016538037,111.57662624035281 C231.14663726571112,111.57662624035281,260.7497243660419,115.04961411245866,260.7497243660419,118.52260198456449 L260.7497243660419,558.8754134509371 C260.7497243660419,562.3484013230429,231.42227122381476,565.8213891951489,202.09481808158765,565.8213891951489 L108.82028665931642,565.8213891951489 C78.77618522601985,565.8213891951489,48.73208379272326,562.0176405733187,48.73208379272326,558.2138919514884 Z" stroke="red" stroke-width="1" fill="none" />
<path d="M95.47960308710033,129.32787299999998 C99.68979639911797,129.31783612458653,103.07748331312017,125.93014921058435,103.08752018853363,121.7199558985667 C103.07748331312017,117.50976258654904,99.68979639911797,114.12207567254686,95.47960308710033,114.11203879713341 C91.26940977508269,114.12207567254686,87.88172286108049,117.50976258654904,87.87168598566703,121.7199558985667 C87.88172286108049,125.93014921058435,91.26940977508269,129.31783612458653,95.47960308710033,129.32787299999998 Z" stroke="blue" stroke-width="5" fill="none" />
</svg>
